<?xml version="1.0" encoding="iso-8859-1"?>
<!-- Generator: Adobe Illustrator 21.1.0, SVG Export Plug-In . SVG Version: 6.00 Build 0)  -->
<svg version="1.1" id="&#x421;&#x43B;&#x43E;&#x439;_1"
	 xmlns="http://www.w3.org/2000/svg" xmlns:xlink="http://www.w3.org/1999/xlink" x="0px" y="0px" viewBox="0 0 56.69 56.69"
	 style="enable-background:new 0 0 56.69 56.69;" xml:space="preserve">
<g>
	<polygon style="fill:#A6CDD8;" points="28.323,25.194 22.151,29.28 28.426,33.206 34.598,29.12 	"/>
	<polygon style="fill:#A6CDD8;" points="49.583,12.352 47.722,12.352 7.803,12.352 7.268,12.352 28.426,25.361 	"/>
	<rect x="23.096" y="12.352" style="fill:#FFFFFF;" width="10.409" height="33.811"/>
	<polygon style="fill:#A6CDD8;" points="0.109,15.86 0.109,42.772 21.994,29.316 	"/>
	<polygon style="fill:#A6CDD8;" points="56.708,42.751 56.708,15.881 34.858,29.316 	"/>
	<polygon style="fill:#A6CDD8;" points="7.268,46.28 8.676,46.28 49.316,46.28 49.583,46.28 28.426,33.271 	"/>
	<polygon style="fill:#FFFFFF;" points="26.783,32.261 3.983,46.28 7.268,46.28 28.426,33.271 	"/>
	<polygon style="fill:#FFFFFF;" points="30.097,26.389 52.926,12.352 49.583,12.352 28.426,25.361 	"/>
	<polygon style="fill:#FFFFFF;" points="56.708,13.862 33.215,28.306 34.858,29.316 56.708,15.881 56.708,14.484 	"/>
	<polygon style="fill:#FFFFFF;" points="0.109,44.828 23.665,30.344 21.994,29.316 0.109,42.772 0.109,43.871 	"/>
	<path style="fill:#C94B4B;" d="M0.109,44.828v0.815c0,0.352,0.285,0.638,0.638,0.638h3.237l22.8-14.019l-3.118-1.917L0.109,44.828z
		"/>
	<path style="fill:#C94B4B;" d="M56.708,13.862V12.98c0-0.347-0.281-0.628-0.628-0.628h-3.154L30.097,26.389l3.118,1.917
		L56.708,13.862z"/>
	<polygon style="fill:#FFFFFF;" points="23.619,28.316 0.109,13.861 0.109,15.485 0.109,15.86 21.994,29.316 	"/>
	<polygon style="fill:#FFFFFF;" points="33.17,30.354 56.708,44.826 56.708,42.957 56.708,42.751 34.858,29.316 	"/>
	<polygon style="fill:#FFFFFF;" points="30.051,32.271 28.426,33.271 49.583,46.28 52.835,46.28 	"/>
	<polygon style="fill:#FFFFFF;" points="26.738,26.399 28.426,25.361 7.268,12.352 3.892,12.352 	"/>
	<polygon style="fill:#FFFFFF;" points="30.097,26.389 28.426,25.361 26.738,26.399 28.409,27.427 	"/>
	<polygon style="fill:#FFFFFF;" points="26.783,32.261 28.426,33.271 30.051,32.271 28.409,31.261 	"/>
	<polygon style="fill:#FFFFFF;" points="33.17,30.354 34.858,29.316 33.215,28.306 31.527,29.344 	"/>
	<polygon style="fill:#FFFFFF;" points="23.619,28.316 21.994,29.316 23.665,30.344 25.291,29.344 	"/>
	<polygon style="fill:#FFFFFF;" points="31.527,29.344 33.215,28.306 30.097,26.389 28.409,27.427 	"/>
	<polygon style="fill:#FFFFFF;" points="25.291,29.344 23.665,30.344 26.783,32.261 28.409,31.261 	"/>
	<path style="fill:#C94B4B;" d="M30.051,32.271L52.835,46.28h3.235c0.352,0,0.638-0.285,0.638-0.638v-0.816L33.17,30.354
		L30.051,32.271z"/>
	<path style="fill:#C94B4B;" d="M3.892,12.352H0.746c-0.352,0-0.638,0.285-0.638,0.638v0.871l23.511,14.456l3.118-1.917
		L3.892,12.352z"/>
	<polygon style="fill:#C94B4B;" points="28.409,27.427 26.738,26.399 23.619,28.316 25.291,29.344 	"/>
	<polygon style="fill:#C94B4B;" points="31.527,29.344 28.409,31.261 30.051,32.271 33.17,30.354 	"/>
	<polygon style="fill:#C94B4B;" points="25.291,29.344 28.409,31.261 31.527,29.344 28.409,27.427 	"/>
	
		<rect x="23.221" y="1.034" transform="matrix(-1.836970e-16 1 -1 -1.836970e-16 57.7417 0.8904)" style="fill:#FFFFFF;" width="10.409" height="56.564"/>
	<rect x="24.932" y="12.352" style="fill:#C94B4B;" width="6.738" height="33.928"/>
	
		<rect x="25.039" y="1.016" transform="matrix(-1.836970e-16 1 -1 -1.836970e-16 57.7241 0.908)" style="fill:#C94B4B;" width="6.738" height="56.599"/>
</g>
</svg>
