<?xml version="1.0" encoding="UTF-8" standalone="no"?>
<svg
   xmlns:dc="http://purl.org/dc/elements/1.1/"
   xmlns:cc="http://creativecommons.org/ns#"
   xmlns:rdf="http://www.w3.org/1999/02/22-rdf-syntax-ns#"
   xmlns:svg="http://www.w3.org/2000/svg"
   xmlns="http://www.w3.org/2000/svg"
   xmlns:sodipodi="http://sodipodi.sourceforge.net/DTD/sodipodi-0.dtd"
   xmlns:inkscape="http://www.inkscape.org/namespaces/inkscape"
   version="1.1"
   id="svg2"
   xml:space="preserve"
   width="75.58667"
   height="75.58667"
   viewBox="0 0 75.58667 75.58667"
   sodipodi:docname="icon_git.ai"><metadata
     id="metadata8"><rdf:RDF><cc:Work
         rdf:about=""><dc:format>image/svg+xml</dc:format><dc:type
           rdf:resource="http://purl.org/dc/dcmitype/StillImage" /></cc:Work></rdf:RDF></metadata><defs
     id="defs6"><clipPath
       clipPathUnits="userSpaceOnUse"
       id="clipPath18"><path
         d="M 0,56.69 H 56.69 V 0 H 0 Z"
         id="path16" /></clipPath></defs><sodipodi:namedview
     pagecolor="#ffffff"
     bordercolor="#666666"
     borderopacity="1"
     objecttolerance="10"
     gridtolerance="10"
     guidetolerance="10"
     inkscape:pageopacity="0"
     inkscape:pageshadow="2"
     inkscape:window-width="640"
     inkscape:window-height="480"
     id="namedview4" /><g
     id="g10"
     inkscape:groupmode="layer"
     inkscape:label="icon_git"
     transform="matrix(1.3333333,0,0,-1.3333333,0,75.586667)"><g
       id="g12"><g
         id="g14"
         clip-path="url(#clipPath18)"><g
           id="g20"
           transform="translate(4.8115,29.0547)"><path
             d="m 0,0 c 0.311,1.224 1.164,2.06 2.023,2.913 4.111,4.081 8.203,8.18 12.295,12.279 0.206,0.205 0.359,0.463 0.601,0.782 1.786,-1.789 3.444,-3.441 5.085,-5.111 0.112,-0.113 0.16,-0.367 0.125,-0.533 -0.372,-1.803 0.131,-3.234 1.699,-4.273 0.194,-0.129 0.351,-0.469 0.352,-0.711 0.022,-3.91 0.028,-7.821 -0.009,-11.731 -0.003,-0.294 -0.289,-0.67 -0.55,-0.863 -1.368,-1.013 -1.962,-2.652 -1.46,-4.198 0.533,-1.643 1.985,-2.62 3.789,-2.55 1.559,0.06 2.895,1.186 3.312,2.814 0.373,1.459 -0.073,2.694 -1.2,3.625 -0.516,0.428 -0.678,0.86 -0.673,1.494 0.023,3.469 0.01,6.938 0.01,10.408 v 1.143 c 1.15,-1.156 2.111,-2.123 3.073,-3.09 0.269,-0.271 0.516,-0.57 0.815,-0.804 0.57,-0.447 0.698,-0.933 0.55,-1.678 -0.378,-1.905 1.124,-3.757 3.215,-4.119 1.714,-0.298 3.659,1.054 4.038,2.807 0.431,1.994 -0.757,3.98 -2.663,4.431 -0.313,0.074 -0.679,0.22 -0.948,0.127 -1.048,-0.361 -1.621,0.264 -2.246,0.91 -1.165,1.205 -2.378,2.363 -3.54,3.57 -0.211,0.22 -0.415,0.601 -0.381,0.879 0.325,2.689 -1.452,4.634 -4.121,4.384 -0.541,-0.05 -0.863,0.089 -1.219,0.452 -1.541,1.571 -3.107,3.117 -4.582,4.59 1.523,1.6 2.927,3.224 4.496,4.669 0.989,0.912 2.662,0.674 3.705,-0.308 0.941,-0.887 1.841,-1.818 2.756,-2.732 5.782,-5.777 11.564,-11.554 17.345,-17.332 1.829,-1.829 1.832,-3.318 0.013,-5.136 -6.303,-6.296 -12.609,-12.587 -18.904,-18.891 -0.831,-0.832 -1.642,-1.671 -2.803,-2.038 h -0.706 c -1.142,0.337 -1.946,1.134 -2.76,1.95 C 14.405,-15.731 8.267,-9.603 2.121,-3.48 1.247,-2.609 0.351,-1.77 0,-0.529 Z"
             style="fill:#d4915d;fill-opacity:1;fill-rule:nonzero;stroke:none"
             id="path22" /></g><g
           id="g24"
           transform="translate(56.6904,16.7549)"><path
             d="m 0,0 c -1.651,-0.491 -3.275,-1.148 -4.962,-1.424 -1.541,-0.251 -3.174,-0.273 -4.724,-0.071 -3.127,0.409 -4.809,2.339 -4.929,5.57 -0.113,3.024 -0.059,6.054 -0.074,9.082 -0.006,1.264 -0.021,2.529 0.006,3.792 0.013,0.602 -0.203,0.854 -0.819,0.83 -0.849,-0.032 -1.699,-0.008 -2.623,-0.008 v 3.984 c 4.44,0.344 5.554,3.508 5.939,7.258 h 4.235 V 27.02 c 0,-1.323 0.031,-2.647 -0.013,-3.968 -0.022,-0.67 0.223,-0.858 0.866,-0.846 1.907,0.034 3.815,0.012 5.787,0.012 v -4.437 h -6.64 v -1.163 c 0,-3.145 -0.007,-6.291 0.007,-9.436 0.003,-0.614 0.047,-1.235 0.149,-1.839 0.217,-1.274 0.918,-1.99 2.199,-1.978 1.422,0.015 2.842,0.244 4.372,0.391 C -0.858,2.739 -0.43,1.546 0,0.353 Z"
             style="fill:#000000;fill-opacity:1;fill-rule:nonzero;stroke:none"
             id="path26" /></g><g
           id="g28"
           transform="translate(11.3564,8.5518)"><path
             d="M 0,0 C 1.34,0.231 2.631,0.36 3.867,0.694 5.051,1.015 5.671,1.936 5.587,2.862 5.515,3.674 4.892,4.175 3.541,4.292 0.908,4.521 -1.73,4.682 -4.367,4.854 -4.58,4.868 -4.883,4.831 -5.004,4.694 -5.634,3.979 -6.192,3.199 -6.012,2.171 -5.841,1.193 -5.083,0.733 -4.222,0.574 -2.816,0.312 -1.386,0.182 0,0 m 0.102,25.497 c -0.264,0 -0.53,0.021 -0.791,-0.004 -2.101,-0.201 -3.423,-1.569 -3.559,-3.672 -0.143,-2.202 0.837,-3.658 2.79,-4.046 0.597,-0.119 1.229,-0.149 1.836,-0.105 2.448,0.177 3.92,1.752 3.824,4.033 -0.103,2.448 -1.568,3.813 -4.1,3.794 M -9.048,5.965 c -0.53,0.601 -1.181,1.086 -1.481,1.734 -0.663,1.435 -0.225,2.758 0.816,3.886 0.916,0.991 1.859,1.957 2.807,2.953 -0.018,0.016 -0.09,0.113 -0.186,0.166 -4.441,2.439 -4.354,9.146 -1.556,12.209 1.865,2.043 4.305,2.839 6.953,2.945 1.717,0.07 3.446,-0.218 5.173,-0.283 1.673,-0.063 3.349,-0.05 5.024,-0.06 1.315,-0.009 2.631,-0.002 3.998,-0.002 V 25.737 C 11.208,25.622 9.913,25.505 8.778,25.404 9.214,24.076 9.873,22.837 9.998,21.546 10.422,17.147 7.714,13.853 3.104,13.215 1.298,12.965 -0.578,13.146 -2.417,13.24 -2.916,13.266 -3.164,13.201 -3.395,12.788 -3.719,12.206 -4.087,11.649 -4.527,10.937 -2.95,10.839 -1.523,10.781 -0.103,10.654 2.267,10.442 4.647,10.29 6.993,9.919 9.394,9.539 11.505,8.57 12.049,5.847 12.624,2.965 12.054,0.399 9.638,-1.516 7.805,-2.97 5.632,-3.564 3.361,-3.852 c -3.322,-0.419 -6.63,-0.339 -9.898,0.429 -0.736,0.174 -1.468,0.444 -2.144,0.782 -2.777,1.393 -3.518,4.694 -1.626,7.17 0.405,0.531 0.88,1.007 1.259,1.436"
             style="fill:#000000;fill-opacity:1;fill-rule:nonzero;stroke:none"
             id="path30" /></g><g
           id="g32"
           transform="translate(38.8164,18.6279)"><path
             d="m 0,0 v -3.446 h -12.722 c 0,1.037 -0.018,2.053 0.02,3.067 0.005,0.149 0.258,0.371 0.432,0.413 0.454,0.112 0.926,0.183 1.394,0.196 0.901,0.027 1.188,0.473 1.181,1.346 -0.031,4.145 -0.028,8.29 -10e-4,12.435 0.005,0.864 -0.298,1.331 -1.146,1.601 -1.853,0.59 -1.844,0.629 -1.628,2.525 0.06,0.525 0.144,1.046 0.226,1.636 h 9.282 V 18.79 C -2.962,13.028 -2.944,7.266 -2.981,1.504 -2.987,0.628 -2.679,0.282 -1.849,0.235 -1.265,0.202 -0.685,0.091 0,0"
             style="fill:#000000;fill-opacity:1;fill-rule:nonzero;stroke:none"
             id="path34" /></g></g></g></g></svg>
