<?xml version="1.0" encoding="UTF-8" standalone="no"?>
<svg
   xmlns:dc="http://purl.org/dc/elements/1.1/"
   xmlns:cc="http://creativecommons.org/ns#"
   xmlns:rdf="http://www.w3.org/1999/02/22-rdf-syntax-ns#"
   xmlns:svg="http://www.w3.org/2000/svg"
   xmlns="http://www.w3.org/2000/svg"
   xmlns:sodipodi="http://sodipodi.sourceforge.net/DTD/sodipodi-0.dtd"
   xmlns:inkscape="http://www.inkscape.org/namespaces/inkscape"
   version="1.1"
   id="svg2"
   xml:space="preserve"
   width="75.58667"
   height="75.58667"
   viewBox="0 0 75.58667 75.58667"
   sodipodi:docname="icon_inst.ai"><metadata
     id="metadata8"><rdf:RDF><cc:Work
         rdf:about=""><dc:format>image/svg+xml</dc:format><dc:type
           rdf:resource="http://purl.org/dc/dcmitype/StillImage" /></cc:Work></rdf:RDF></metadata><defs
     id="defs6"><linearGradient
       x1="0"
       y1="0"
       x2="1"
       y2="0"
       gradientUnits="userSpaceOnUse"
       gradientTransform="matrix(12.332689,12.332689,12.332689,-12.332689,22.439421,20.197546)"
       spreadMethod="pad"
       id="linearGradient28"><stop
         style="stop-opacity:1;stop-color:#a6d2e7"
         offset="0"
         id="stop24" /><stop
         style="stop-opacity:1;stop-color:#ca8459"
         offset="1"
         id="stop26" /></linearGradient><linearGradient
       x1="0"
       y1="0"
       x2="1"
       y2="0"
       gradientUnits="userSpaceOnUse"
       gradientTransform="matrix(40.08588,40.08588,40.08588,-40.08588,6.7889376,6.7804708)"
       spreadMethod="pad"
       id="linearGradient48"><stop
         style="stop-opacity:1;stop-color:#a6d2e7"
         offset="0"
         id="stop44" /><stop
         style="stop-opacity:1;stop-color:#ca8459"
         offset="1"
         id="stop46" /></linearGradient><linearGradient
       x1="0"
       y1="0"
       x2="1"
       y2="0"
       gradientUnits="userSpaceOnUse"
       gradientTransform="matrix(27.891716,27.891716,27.891716,-27.891716,13.471582,12.677977)"
       spreadMethod="pad"
       id="linearGradient68"><stop
         style="stop-opacity:1;stop-color:#a6d2e7"
         offset="0"
         id="stop64" /><stop
         style="stop-opacity:1;stop-color:#ca8459"
         offset="1"
         id="stop66" /></linearGradient></defs><sodipodi:namedview
     pagecolor="#ffffff"
     bordercolor="#666666"
     borderopacity="1"
     objecttolerance="10"
     gridtolerance="10"
     guidetolerance="10"
     inkscape:pageopacity="0"
     inkscape:pageshadow="2"
     inkscape:window-width="640"
     inkscape:window-height="480"
     id="namedview4" /><g
     id="g10"
     inkscape:groupmode="layer"
     inkscape:label="icon_inst"
     transform="matrix(1.3333333,0,0,-1.3333333,0,75.586667)"><g
       id="g12"><g
         id="g14"><g
           id="g20"><g
             id="g22"><path
               d="m 20.148,26.626 c 0,-4.816 3.905,-8.72 8.72,-8.72 v 0 c 4.816,0 8.721,3.904 8.721,8.72 v 0 c 0,4.817 -3.905,8.722 -8.721,8.722 v 0 c -4.815,0 -8.72,-3.905 -8.72,-8.722"
               style="fill:url(#linearGradient28);stroke:none"
               id="path30" /></g></g></g></g><g
       id="g32"><g
         id="g34"><g
           id="g40"><g
             id="g42"><path
               d="M 14.301,56.612 C 13.681,56.593 13.063,56.58 12.45,56.488 v 0 C 10.998,56.271 9.619,55.805 8.306,55.163 v 0 C 6.603,54.33 5.128,53.187 3.851,51.786 v 0 C 3.484,51.382 3.132,50.967 2.827,50.514 v 0 C 2.23,49.667 1.706,48.778 1.283,47.831 v 0 C 0.608,46.325 0.165,44.75 0.068,43.108 v 0 c -0.087,-1.5 -0.056,-3.009 -0.06,-4.515 v 0 C -0.01,30.54 0.007,22.486 0.01,14.432 v 0 c 10e-4,-0.568 0.058,-1.135 0.153,-1.688 v 0 C 0.377,11.501 0.675,10.283 1.182,9.113 v 0 C 1.836,7.605 2.681,6.23 3.781,5.013 v 0 C 5.093,3.56 6.606,2.371 8.376,1.516 v 0 c 1.192,-0.575 2.433,-0.994 3.732,-1.24 v 0 c 0.54,-0.102 1.077,-0.245 1.629,-0.256 v 0 C 14.6,0.001 15.465,0.016 16.329,0.016 v 0 C 22.378,0.013 28.428,0.007 34.478,0.005 v 0 c 0.967,-0.001 1.932,0 2.899,0 v 0 c 1.243,0.001 2.486,0.002 3.73,0.001 v 0 c 0.959,-0.001 1.923,-0.012 2.871,0.142 v 0 c 1.169,0.191 2.316,0.482 3.418,0.937 v 0 c 1.142,0.471 2.217,1.059 3.205,1.802 v 0 c 0.146,0.102 0.298,0.196 0.437,0.307 v 0 c 0.722,0.569 1.374,1.212 1.985,1.899 v 0 c 1.093,1.234 1.949,2.611 2.573,4.141 v 0 c 0.664,1.629 1.082,3.311 1.085,5.071 v 0 c 0.013,8.362 0.012,16.724 -0.002,25.086 v 0 c -0.002,1.448 0.064,2.895 -0.114,4.346 v 0 c -0.107,0.872 -0.277,1.718 -0.542,2.543 v 0 c -0.53,1.655 -1.307,3.18 -2.39,4.561 v 0 c -0.733,0.933 -1.539,1.783 -2.442,2.532 v 0 c -0.999,0.828 -2.103,1.513 -3.31,2.012 v 0 c -0.537,0.222 -1.066,0.483 -1.623,0.629 v 0 c -0.768,0.2 -1.535,0.4 -2.335,0.499 v 0 c -0.672,0.083 -1.348,0.142 -2.014,0.147 v 0 c -4.086,0.032 -8.172,0.028 -12.257,0.01 v 0 c -1.756,-0.008 -3.511,0 -5.267,0.008 v 0 c -1.251,0.006 -2.503,0.012 -3.754,0.012 v 0 c -2.11,0 -4.22,-0.017 -6.33,-0.078 M 18.579,4.933 c -1.927,0.016 -3.776,0.431 -5.523,1.269 v 0 C 11.775,6.817 10.621,7.619 9.609,8.614 v 0 c -1.723,1.695 -2.886,3.722 -3.495,6.061 v 0 c -0.436,1.668 -0.421,3.376 -0.411,5.083 v 0 c 0.011,1.739 0.016,3.477 0.016,5.216 v 0 c 0.002,4.158 0.008,8.315 -0.002,12.473 v 0 c -0.005,1.947 0.254,3.841 1.024,5.642 v 0 c 0.329,0.772 0.724,1.512 1.199,2.206 v 0 c 0.789,1.108 1.694,2.108 2.77,2.947 v 0 c 0.95,0.74 1.997,1.304 3.093,1.799 v 0 c 0.71,0.321 1.457,0.468 2.199,0.655 v 0 c 1.09,0.276 2.2,0.27 3.31,0.264 v 0 c 0.172,-10e-4 0.345,-0.002 0.517,-10e-4 v 0 c 6.446,10e-4 12.892,0.008 19.339,-0.005 v 0 c 1.901,-0.005 3.696,-0.485 5.401,-1.323 v 0 c 1.354,-0.666 2.557,-1.539 3.595,-2.624 v 0 c 1.492,-1.56 2.54,-3.38 3.126,-5.465 v 0 c 0.348,-1.237 0.463,-2.496 0.462,-3.777 v 0 c -0.008,-6.764 0.01,-13.527 -0.011,-20.291 v 0 c -0.009,-2.678 -0.916,-5.072 -2.467,-7.236 v 0 C 48.853,9.649 48.396,9.082 47.869,8.594 v 0 C 47.422,8.18 46.982,7.741 46.451,7.419 v 0 C 46.369,7.368 46.3,7.297 46.224,7.237 v 0 C 45.576,6.79 44.887,6.419 44.174,6.087 v 0 C 42.707,5.403 41.159,5.04 39.55,4.984 v 0 C 37.342,4.907 35.134,4.919 32.926,4.93 v 0 C 31.667,4.936 30.408,4.943 29.15,4.934 v 0 C 28.746,4.93 28.343,4.931 27.94,4.932 v 0 c -0.243,0 -0.486,10e-4 -0.727,10e-4 v 0 C 25.331,4.932 23.448,4.922 21.565,4.922 v 0 c -0.995,0 -1.991,0.002 -2.986,0.011"
               style="fill:url(#linearGradient48);stroke:none"
               id="path50" /></g></g></g></g><g
       id="g52"><g
         id="g54"><g
           id="g60"><g
             id="g62"><path
               d="m 24.898,47.673 c -1.863,-0.001 -3.727,-0.003 -5.59,-0.002 v 0 C 18.37,47.672 17.45,47.579 16.521,47.392 v 0 c -0.774,-0.154 -1.468,-0.457 -2.179,-0.747 v 0 c -0.979,-0.398 -1.774,-1.079 -2.526,-1.797 v 0 c -0.483,-0.461 -0.902,-0.991 -1.245,-1.572 v 0 C 9.47,41.579 9.015,39.698 9.016,37.697 v 0 C 9.018,31.545 9.027,25.393 9.035,19.241 v 0 c 10e-4,-0.93 -0.041,-1.865 0.106,-2.785 v 0 c 0.367,-2.277 1.365,-4.229 3.114,-5.766 v 0 c 1.836,-1.613 3.974,-2.424 6.422,-2.424 v 0 C 25.432,8.269 32.188,8.264 38.942,8.263 v 0 c 1.987,0 3.785,0.604 5.419,1.717 v 0 c 0.492,0.28 0.905,0.669 1.3,1.059 v 0 c 1.13,1.116 1.891,2.467 2.377,3.974 v 0 c 0.264,0.821 0.415,1.668 0.416,2.524 v 0 c 0.011,6.974 0.009,13.945 -0.002,20.916 v 0 c 0,0.487 -0.05,0.983 -0.151,1.459 v 0 c -0.464,2.19 -1.515,4.044 -3.236,5.496 v 0 c -1.72,1.45 -3.718,2.238 -5.957,2.249 v 0 c -2.955,0.015 -5.909,0.019 -8.864,0.019 v 0 c -1.782,0 -3.564,-0.001 -5.346,-0.003 M 43.552,40.53 C 43.522,39.356 42.651,38.4 41.38,38.381 v 0 c -1.176,-0.018 -2.103,0.858 -2.142,2.157 v 0 c -0.037,1.199 0.967,2.2 2.18,2.153 v 0 c 1.094,0.055 2.163,-0.943 2.134,-2.161 M 24.137,15.565 c -1.399,0.605 -2.652,1.43 -3.724,2.5 v 0 c -1.48,1.479 -2.526,3.224 -3.1,5.253 v 0 c -0.587,2.075 -0.607,4.151 -0.106,6.233 v 0 c 0.406,1.683 1.176,3.2 2.254,4.558 v 0 c 0.058,0.074 0.11,0.152 0.165,0.229 v 0 c 0.335,0.339 0.66,0.688 1.007,1.015 v 0 c 1.03,0.975 2.204,1.732 3.506,2.3 v 0 c 2.07,0.903 4.217,1.141 6.448,0.839 v 0 c 2.01,-0.273 3.827,-1.018 5.436,-2.226 v 0 c 2.138,-1.603 3.609,-3.688 4.379,-6.268 v 0 c 0.372,-1.243 0.526,-2.507 0.483,-3.787 v 0 c -0.099,-2.845 -1.111,-5.343 -2.969,-7.497 v 0 c -0.448,-0.521 -0.937,-0.999 -1.479,-1.423 v 0 c -0.091,-0.07 -0.203,-0.138 -0.212,-0.277 v 0 c -0.121,0.048 -0.179,-0.058 -0.25,-0.11 v 0 c -1.556,-1.137 -3.291,-1.872 -5.187,-2.162 v 0 c -0.657,-0.1 -1.309,-0.152 -1.956,-0.152 v 0 c -1.601,0 -3.17,0.314 -4.695,0.975"
               style="fill:url(#linearGradient68);stroke:none"
               id="path70" /></g></g></g></g></g></svg>
