<?xml version="1.0" encoding="UTF-8" standalone="no"?>
<svg
   xmlns:dc="http://purl.org/dc/elements/1.1/"
   xmlns:cc="http://creativecommons.org/ns#"
   xmlns:rdf="http://www.w3.org/1999/02/22-rdf-syntax-ns#"
   xmlns:svg="http://www.w3.org/2000/svg"
   xmlns="http://www.w3.org/2000/svg"
   xmlns:sodipodi="http://sodipodi.sourceforge.net/DTD/sodipodi-0.dtd"
   xmlns:inkscape="http://www.inkscape.org/namespaces/inkscape"
   version="1.1"
   id="svg2"
   xml:space="preserve"
   width="75.58667"
   height="75.58667"
   viewBox="0 0 75.58667 75.58667"
   sodipodi:docname="icon_с.ai"><metadata
     id="metadata8"><rdf:RDF><cc:Work
         rdf:about=""><dc:format>image/svg+xml</dc:format><dc:type
           rdf:resource="http://purl.org/dc/dcmitype/StillImage" /></cc:Work></rdf:RDF></metadata><defs
     id="defs6"><clipPath
       clipPathUnits="userSpaceOnUse"
       id="clipPath18"><path
         d="M 0,56.69 H 56.69 V 0 H 0 Z"
         id="path16" /></clipPath></defs><sodipodi:namedview
     pagecolor="#ffffff"
     bordercolor="#666666"
     borderopacity="1"
     objecttolerance="10"
     gridtolerance="10"
     guidetolerance="10"
     inkscape:pageopacity="0"
     inkscape:pageshadow="2"
     inkscape:window-width="640"
     inkscape:window-height="480"
     id="namedview4" /><g
     id="g10"
     inkscape:groupmode="layer"
     inkscape:label="icon_с"
     transform="matrix(1.3333333,0,0,-1.3333333,0,75.586667)"><g
       id="g12"><g
         id="g14"
         clip-path="url(#clipPath18)"><g
           id="g20"
           transform="translate(52.7012,16.8511)"><path
             d="m 0,0 c 0,-1.589 -0.849,-3.058 -2.225,-3.852 l -19.907,-11.494 c -1.377,-0.795 -3.072,-0.795 -4.448,0 l -19.908,11.494 c -1.376,0.794 -2.224,2.263 -2.224,3.852 v 22.987 c 0,1.59 0.848,3.058 2.224,3.853 l 19.908,11.493 c 1.376,0.795 3.071,0.795 4.448,0 L -2.225,26.84 C -0.849,26.045 0,24.577 0,22.987 Z m -1.437,27.294 -20.695,11.949 c -1.377,0.795 -3.072,0.795 -4.448,0 L -47.275,27.294 C -48.652,26.5 -49.5,25.031 -49.5,23.442 V -0.454 c 0,-1.59 0.848,-3.059 2.225,-3.853 l 20.695,-11.948 c 1.376,-0.795 3.071,-0.795 4.448,0 l 20.695,11.948 c 1.376,0.794 2.224,2.263 2.224,3.853 v 23.896 c 0,1.589 -0.848,3.058 -2.224,3.852"
             style="fill:#ffffff;fill-opacity:1;fill-rule:nonzero;stroke:none"
             id="path22" /></g><g
           id="g24"
           transform="translate(28.3447,28.3448)"><path
             d="m 0,0 22.365,12.913 c -0.412,0.713 -1.008,1.319 -1.746,1.746 L 2.386,25.186 c -1.477,0.852 -3.295,0.852 -4.771,0 L -20.619,14.659 c -1.475,-0.852 -2.385,-2.428 -2.385,-4.132 v -21.054 c 0,-0.852 0.228,-1.672 0.639,-2.386 z"
             style="fill:#d08c68;fill-opacity:1;fill-rule:nonzero;stroke:none"
             id="path26" /></g><g
           id="g28"
           transform="translate(5.98,15.4322)"><path
             d="M 0,0 C 0.412,-0.713 1.008,-1.319 1.746,-1.746 L 19.98,-12.272 c 1.476,-0.853 3.294,-0.853 4.77,0 L 42.984,-1.746 C 43.722,-1.319 44.318,-0.713 44.73,0 L 22.365,12.913 Z"
             style="fill:#ca8459;fill-opacity:1;fill-rule:nonzero;stroke:none"
             id="path30" /></g><g
           id="g32"
           transform="translate(29.3916,20.4185)"><path
             d="m 0,0 c -4.377,0 -7.927,3.549 -7.927,7.927 0,4.378 3.55,7.927 7.927,7.927 2.746,0 5.146,-1.41 6.568,-3.531 l 6.614,3.818 C 10.435,20.54 5.568,23.479 0,23.479 c -8.589,0 -15.552,-6.963 -15.552,-15.552 0,-8.589 6.963,-15.552 15.552,-15.552 5.568,0 10.435,2.938 13.182,7.337 L 6.568,3.53 C 5.146,1.408 2.746,0 0,0"
             style="fill:#ffffff;fill-opacity:1;fill-rule:nonzero;stroke:none"
             id="path34" /></g><g
           id="g36"
           transform="translate(50.71,41.2574)"><path
             d="m 0,0 -8.137,-4.698 -6.613,-3.818 -7.615,-4.396 v 0 l 7.615,-4.397 6.613,-3.818 L 0,-25.825 c 0.412,0.714 0.639,1.533 0.639,2.386 v 15.545 5.509 C 0.639,-1.533 0.412,-0.713 0,0"
             style="fill:#d79578;fill-opacity:1;fill-rule:nonzero;stroke:none"
             id="path38" /></g><g
           id="g40"
           transform="translate(47.5957,32.254)"><path
             d="M 0,0 H -1.479 C -1.623,0 -1.74,-0.117 -1.74,-0.261 v -7.646 c 0,-0.143 0.117,-0.26 0.261,-0.26 H 0 c 0.144,0 0.26,0.117 0.26,0.26 v 7.646 C 0.26,-0.117 0.144,0 0,0"
             style="fill:#ffffff;fill-opacity:1;fill-rule:nonzero;stroke:none"
             id="path42" /></g><g
           id="g44"
           transform="translate(43.5957,32.254)"><path
             d="M 0,0 H -1.479 C -1.623,0 -1.74,-0.117 -1.74,-0.261 v -7.646 c 0,-0.143 0.117,-0.26 0.261,-0.26 H 0 c 0.144,0 0.26,0.117 0.26,0.26 v 7.646 C 0.26,-0.117 0.144,0 0,0"
             style="fill:#ffffff;fill-opacity:1;fill-rule:nonzero;stroke:none"
             id="path46" /></g><g
           id="g48"
           transform="translate(48.9873,25.4312)"><path
             d="m 0,0 v 1.479 c 0,0.144 -0.116,0.26 -0.26,0.26 h -7.646 c -0.144,0 -0.26,-0.116 -0.26,-0.26 V 0 c 0,-0.145 0.116,-0.261 0.26,-0.261 H -0.26 C -0.116,-0.261 0,-0.145 0,0"
             style="fill:#ffffff;fill-opacity:1;fill-rule:nonzero;stroke:none"
             id="path50" /></g><g
           id="g52"
           transform="translate(48.9873,29.4307)"><path
             d="M 0,0 V 1.479 C 0,1.623 -0.116,1.74 -0.26,1.74 h -7.646 c -0.144,0 -0.26,-0.117 -0.26,-0.261 V 0 c 0,-0.144 0.116,-0.26 0.26,-0.26 H -0.26 C -0.116,-0.26 0,-0.144 0,0"
             style="fill:#ffffff;fill-opacity:1;fill-rule:nonzero;stroke:none"
             id="path54" /></g></g></g></g></svg>
