<?xml version="1.0" encoding="UTF-8" standalone="no"?>
<svg
   xmlns:dc="http://purl.org/dc/elements/1.1/"
   xmlns:cc="http://creativecommons.org/ns#"
   xmlns:rdf="http://www.w3.org/1999/02/22-rdf-syntax-ns#"
   xmlns:svg="http://www.w3.org/2000/svg"
   xmlns="http://www.w3.org/2000/svg"
   viewBox="0 0 75.58667 75.58667"
   height="75.58667"
   width="75.58667"
   xml:space="preserve"
   id="svg2"
   version="1.1"><metadata
     id="metadata8"><rdf:RDF><cc:Work
         rdf:about=""><dc:format>image/svg+xml</dc:format><dc:type
           rdf:resource="http://purl.org/dc/dcmitype/StillImage" /></cc:Work></rdf:RDF></metadata><defs
     id="defs6"><clipPath
       id="clipPath18"
       clipPathUnits="userSpaceOnUse"><path
         id="path16"
         d="M 0,56.69 H 56.69 V 0 H 0 Z" /></clipPath></defs><g
     transform="matrix(1.3333333,0,0,-1.3333333,0,75.586667)"
     id="g10"><g
       id="g12"><g
         clip-path="url(#clipPath18)"
         id="g14"><g
           transform="translate(1.9526,10.4883)"
           id="g20"><path
             id="path22"
             style="fill:#b6d6e0;fill-opacity:1;fill-rule:nonzero;stroke:none"
             d="m 0,0 v -0.354 c 0,-2.367 -0.005,-4.732 0.006,-7.098 0.002,-0.282 -0.087,-0.355 -0.353,-0.345 -0.525,0.018 -1.051,0.005 -1.606,0.005 v 0.388 7.533 c 0,0.706 0.256,1.053 0.94,1.272 C -0.414,1.594 0.196,1.662 0.81,1.49 1.342,1.341 1.706,0.982 1.922,0.483 2.863,-1.69 3.799,-3.866 4.738,-6.041 c 0.035,-0.083 0.088,-0.158 0.166,-0.298 0.179,0.387 0.338,0.724 0.491,1.064 0.804,1.8 1.641,3.588 2.397,5.407 0.58,1.393 1.558,1.648 2.913,1.325 0.514,-0.123 0.966,-0.326 1.094,-0.911 0.029,-0.13 0.034,-0.267 0.034,-0.4 10e-4,-2.549 -0.002,-5.099 0.006,-7.648 10e-4,-0.246 -0.09,-0.299 -0.308,-0.293 -0.436,0.012 -0.873,0.018 -1.307,-0.002 -0.27,-0.013 -0.353,0.067 -0.352,0.347 0.011,2.366 0.006,4.731 0.006,7.097 V 0 C 9.854,0.003 9.83,0.007 9.806,0.01 9.468,-0.735 9.128,-1.479 8.793,-2.227 8.097,-3.777 7.405,-5.33 6.708,-6.881 6.42,-7.519 5.915,-7.84 5.22,-7.862 4.972,-7.87 4.72,-7.881 4.475,-7.848 3.892,-7.77 3.459,-7.473 3.212,-6.923 2.447,-5.221 1.679,-3.521 0.912,-1.821 0.662,-1.268 0.413,-0.712 0.163,-0.157 0.136,-0.098 0.1,-0.042 0.068,0.015 0.046,0.01 0.023,0.005 0,0" /></g><g
           transform="translate(40.5664,5.4502)"
           id="g24"><path
             id="path26"
             style="fill:#d4915d;fill-opacity:1;fill-rule:nonzero;stroke:none"
             d="m 0,0 c 0.744,0 1.416,0.007 2.087,-0.007 0.109,-0.003 0.235,-0.075 0.322,-0.151 0.306,-0.263 0.603,-0.536 0.894,-0.816 0.377,-0.362 0.639,-0.313 0.835,0.18 0.05,0.13 0.065,0.281 0.065,0.423 0.005,1.42 0.003,2.84 0.003,4.261 0,0.79 -0.385,1.231 -1.172,1.248 -1.191,0.025 -2.385,0.022 -3.576,0 C -1.271,5.124 -1.748,4.68 -1.75,4.067 -1.755,2.616 -1.755,1.165 -1.749,-0.286 -1.747,-0.885 -1.367,-1.37 -0.779,-1.422 -0.05,-1.486 0.687,-1.473 1.42,-1.488 1.454,-1.489 1.488,-1.456 1.56,-1.42 1.044,-0.951 0.552,-0.502 0,0 m 6.65,-4.102 c -0.679,0 -1.359,-0.006 -2.039,0.008 -0.094,0.002 -0.198,0.101 -0.28,0.174 -0.427,0.378 -0.843,0.767 -1.273,1.14 -0.085,0.073 -0.219,0.131 -0.328,0.129 -1.231,-0.03 -2.462,-0.118 -3.692,-0.096 -0.816,0.015 -1.619,0.212 -2.27,0.778 -0.387,0.338 -0.596,0.762 -0.597,1.277 -0.003,1.647 0.013,3.295 -0.007,4.942 -0.01,0.854 0.393,1.446 1.136,1.751 0.532,0.219 1.126,0.372 1.698,0.394 1.438,0.053 2.88,0.038 4.319,0.006 C 4.001,6.387 4.662,6.199 5.241,5.808 5.768,5.452 6.027,4.94 6.03,4.311 6.037,2.692 6.031,1.074 6.033,-0.543 6.034,-1.311 5.762,-1.911 5.026,-2.242 4.965,-2.27 4.913,-2.318 4.849,-2.363 5.468,-2.926 6.069,-3.473 6.671,-4.02 Z" /></g><g
           transform="translate(49.7383,21.7109)"
           id="g28"><path
             id="path30"
             style="fill:#b6d6e0;fill-opacity:1;fill-rule:nonzero;stroke:none"
             d="m 0,0 c -2.271,-0.452 -4.422,-0.881 -6.594,-1.313 0.267,-0.899 0.954,-1.256 1.561,-1.682 1.074,-0.753 2.254,-1.388 3.211,-2.267 1.092,-1.003 1.988,-2.217 2.966,-3.342 0.032,-0.039 0.029,-0.106 0.066,-0.256 -0.568,0.447 -1.032,0.898 -1.574,1.219 -1.336,0.794 -2.707,1.53 -4.065,2.287 -1.369,0.763 -2.704,1.581 -3.662,2.857 -0.359,0.479 -0.631,1.031 -0.888,1.576 -0.048,0.103 0.125,0.438 0.252,0.476 1.174,0.354 2.345,0.748 3.547,0.968 0.986,0.181 2.012,0.144 3.186,0.213 -0.24,0.3 -0.383,0.594 -0.616,0.751 -2.483,1.659 -4.786,3.657 -7.827,4.287 -1.411,0.293 -2.223,1.221 -2.782,2.458 -1.262,2.798 -2.51,5.604 -3.797,8.392 -1.138,2.47 -2.706,4.659 -4.576,6.626 -2.546,2.679 -5.438,4.887 -8.979,6.063 -1.089,0.363 -2.311,0.312 -3.464,0.504 -0.42,0.07 -0.892,0.201 -1.206,0.465 -1.329,1.12 -2.864,1.818 -4.492,2.345 -0.499,0.163 -1.02,0.206 -1.405,-0.244 -0.365,-0.426 -0.3,-0.928 -0.025,-1.359 0.533,-0.832 1.068,-1.671 1.687,-2.439 1.326,-1.643 2.047,-3.55 2.624,-5.542 0.412,-1.421 0.958,-2.79 1.87,-3.981 0.062,-0.08 0.107,-0.184 0.185,-0.239 1.15,-0.804 1.061,-1.865 0.568,-2.959 -0.91,-2.02 -1.064,-4.145 -0.907,-6.305 0.104,-1.439 0.513,-2.812 1.197,-4.093 0.075,-0.142 0.141,-0.314 0.262,-0.401 0.301,-0.216 0.631,-0.392 0.949,-0.585 0.078,0.278 0.18,0.552 0.228,0.835 0.127,0.735 0.258,1.47 0.337,2.21 0.151,1.403 0.886,2.482 1.869,3.508 1.619,-4.17 3.681,-8.036 6.703,-11.334 -1.286,1.164 -2.69,2.226 -3.825,3.522 -1.111,1.268 -1.949,2.776 -2.937,4.223 -0.132,-0.834 -0.27,-1.693 -0.404,-2.553 -0.013,-0.08 0.001,-0.165 -0.017,-0.244 -0.178,-0.754 -0.437,-1.463 -1.299,-1.669 -0.865,-0.207 -1.546,0.168 -2.106,0.789 -1.266,1.404 -1.824,3.12 -2.111,4.942 -0.443,2.832 0.147,5.537 1.023,8.208 0.059,0.178 0.029,0.483 -0.089,0.607 -1.435,1.519 -2.228,3.394 -2.779,5.341 -0.671,2.373 -1.808,4.431 -3.414,6.281 -0.652,0.75 -1.145,1.632 -1.095,2.699 0.075,1.587 1.223,2.503 2.721,2.342 2.08,-0.223 3.915,-1.127 5.492,-2.479 0.553,-0.474 1.172,-0.484 1.759,-0.501 2.623,-0.079 4.866,-1.114 7.011,-2.521 3.964,-2.6 7.207,-5.887 9.569,-9.995 0.731,-1.27 1.187,-2.695 1.807,-4.032 0.96,-2.071 1.945,-4.131 2.938,-6.187 0.27,-0.558 0.684,-0.95 1.313,-1.173 C -7.43,6.374 -5.139,4.9 -3.025,3.141 -2.356,2.584 -1.696,2.012 -1.079,1.398 -0.712,1.034 -0.438,0.576 0,0" /></g><g
           transform="translate(15.5801,-0.0439)"
           id="g32"><path
             id="path34"
             style="fill:#b6d6e0;fill-opacity:1;fill-rule:nonzero;stroke:none"
             d="m 0,0 v 1.258 h 0.379 c 1.889,0 3.777,0 5.665,10e-4 0.134,0 0.272,-0.005 0.402,0.023 0.899,0.194 1.059,0.448 0.931,1.521 H 7.027 C 5.855,2.803 4.682,2.782 3.511,2.81 2.749,2.828 1.978,2.867 1.262,3.18 0.672,3.437 0.136,3.764 -0.039,4.451 -0.064,4.55 -0.073,4.654 -0.074,4.757 -0.076,6.137 -0.072,7.516 -0.078,8.896 -0.079,9.097 -0.034,9.155 0.188,9.143 0.622,9.119 1.06,9.149 1.496,9.155 1.607,9.156 1.719,9.146 1.877,9.139 V 8.79 C 1.877,7.514 1.9,6.237 1.869,4.962 1.852,4.287 2.276,4.019 2.762,4.01 4.296,3.982 5.832,4.004 7.366,4.008 c 0.018,0 0.036,0.016 0.083,0.039 V 9.143 H 9.412 V 8.792 2.412 C 9.412,1.279 8.999,0.651 7.915,0.301 7.394,0.132 6.833,0.012 6.287,0.003 4.267,-0.032 2.247,-0.013 0.226,-0.013 0.164,-0.013 0.103,-0.006 0,0" /></g><g
           transform="translate(35.4561,10.5957)"
           id="g36"><path
             id="path38"
             style="fill:#d4915d;fill-opacity:1;fill-rule:nonzero;stroke:none"
             d="m 0,0 h -0.408 c -1.857,0 -3.713,0.015 -5.57,-0.008 -0.732,-0.008 -0.976,-0.275 -0.939,-0.959 0.011,-0.207 0.015,-0.416 -0.001,-0.622 -0.052,-0.676 0.404,-1.06 1.071,-1.066 0.82,-0.009 1.64,0.011 2.458,-0.006 0.805,-0.018 1.598,-0.106 2.33,-0.491 0.656,-0.345 1.083,-0.813 0.997,-1.618 -0.03,-0.287 -0.022,-0.582 0,-0.871 0.059,-0.819 -0.351,-1.339 -1.03,-1.72 -0.728,-0.409 -1.523,-0.511 -2.332,-0.519 -1.701,-0.016 -3.402,0 -5.103,-0.01 -0.274,-0.002 -0.369,0.083 -0.348,0.357 0.023,0.299 0.006,0.599 0.006,0.952 h 0.377 c 1.742,0 3.485,-0.004 5.227,0.006 0.222,0.001 0.452,0.051 0.662,0.125 0.396,0.14 0.582,0.438 0.583,0.856 0,0.198 -10e-4,0.394 0,0.591 0,0.752 -0.338,1.114 -1.104,1.139 -0.704,0.022 -1.41,0.01 -2.114,0.029 -0.784,0.021 -1.575,0.032 -2.309,0.362 -0.271,0.121 -0.54,0.268 -0.773,0.45 -0.366,0.286 -0.58,0.662 -0.549,1.155 0.033,0.525 0.022,1.054 0.067,1.578 0.035,0.405 0.292,0.708 0.606,0.939 0.483,0.357 1.041,0.593 1.634,0.605 2.093,0.04 4.188,0.035 6.282,0.053 C -0.065,1.309 0.014,1.231 0.004,1.015 -0.011,0.694 0,0.373 0,0" /></g><g
           transform="translate(56.6885,4.0146)"
           id="g40"><path
             id="path42"
             style="fill:#d4915d;fill-opacity:1;fill-rule:nonzero;stroke:none"
             d="m 0,0 c 0,-0.4 -0.004,-0.751 0.002,-1.103 0.003,-0.208 -0.14,-0.199 -0.275,-0.2 -0.572,-0.002 -1.142,-0.005 -1.712,-0.001 -1.235,0.011 -2.47,-0.016 -3.701,0.057 -0.626,0.037 -1.265,0.195 -1.858,0.41 -0.861,0.314 -1.252,1.016 -1.256,1.918 -0.007,2.179 0,4.358 -0.006,6.537 -0.001,0.21 0.081,0.272 0.274,0.269 0.456,-0.006 0.913,-0.015 1.369,0.003 0.275,0.011 0.32,-0.114 0.319,-0.353 C -6.852,5.443 -6.835,3.35 -6.854,1.256 -6.864,0.329 -6.441,0.023 -5.579,0.009 -3.857,-0.02 -2.135,0 -0.413,0 Z" /></g><g
           transform="translate(16.0249,48.335)"
           id="g44"><path
             id="path46"
             style="fill:#b6d6e0;fill-opacity:1;fill-rule:nonzero;stroke:none"
             d="M 0,0 C 1.078,0.239 1.563,0.028 2,-0.871 2.284,-1.454 2.13,-2.043 1.587,-2.495 1.067,-1.677 0.545,-0.857 0,0" /></g></g></g></g></svg>