<?xml version="1.0" encoding="UTF-8" standalone="no"?>
<svg
   xmlns:dc="http://purl.org/dc/elements/1.1/"
   xmlns:cc="http://creativecommons.org/ns#"
   xmlns:rdf="http://www.w3.org/1999/02/22-rdf-syntax-ns#"
   xmlns:svg="http://www.w3.org/2000/svg"
   xmlns="http://www.w3.org/2000/svg"
   viewBox="0 0 75.58667 75.58667"
   height="75.58667"
   width="75.58667"
   xml:space="preserve"
   id="svg2"
   version="1.1"><metadata
     id="metadata8"><rdf:RDF><cc:Work
         rdf:about=""><dc:format>image/svg+xml</dc:format><dc:type
           rdf:resource="http://purl.org/dc/dcmitype/StillImage" /></cc:Work></rdf:RDF></metadata><defs
     id="defs6"><clipPath
       id="clipPath18"
       clipPathUnits="userSpaceOnUse"><path
         id="path16"
         d="M 0,56.69 H 56.69 V 0 H 0 Z" /></clipPath></defs><g
     transform="matrix(1.3333333,0,0,-1.3333333,0,75.586667)"
     id="g10"><g
       id="g12"><g
         clip-path="url(#clipPath18)"
         id="g14"><g
           transform="translate(0.6387,18.5449)"
           id="g20"><path
             id="path22"
             style="fill:#b6d6e0;fill-opacity:1;fill-rule:nonzero;stroke:none"
             d="m 0,0 v 0.98 c 0.241,0.557 0.557,1.045 1.02,1.462 2.625,2.37 5.227,4.762 7.845,7.137 0.217,0.196 0.194,0.288 -0.008,0.47 -1.47,1.328 -2.929,2.67 -4.394,4.005 -0.601,0.548 -1.24,1.06 -1.806,1.643 C 1.736,16.644 0.5,17.309 0,18.637 v 0.91 c 0.194,0.789 0.737,1.32 1.321,1.833 0.798,0.702 1.574,1.429 2.361,2.141 1.072,0.97 2.162,1.016 3.315,0.142 3.069,-2.327 6.139,-4.653 9.203,-6.985 0.181,-0.138 0.285,-0.152 0.464,0.011 3.41,3.12 6.827,6.232 10.243,9.345 3.917,3.571 7.834,7.143 11.751,10.714 0.198,0.18 0.399,0.36 0.657,0.454 0.046,0.001 0.094,-0.005 0.14,0.002 1.571,0.225 2.577,-0.645 2.579,-2.232 C 42.037,30.816 42.04,26.66 42.043,22.504 41.992,22.478 41.936,22.459 41.891,22.425 38.979,20.22 36.073,18.005 33.153,15.81 31.722,14.734 30.287,13.661 28.876,12.557 27.787,11.705 26.684,10.87 25.569,10.05 25.273,9.833 25.338,9.742 25.585,9.555 c 3.23,-2.44 6.456,-4.884 9.677,-7.336 1.183,-0.902 2.36,-1.813 3.546,-2.711 1.074,-0.815 2.142,-1.639 3.228,-2.441 0.005,-4.265 0.024,-8.532 0.004,-12.798 -0.004,-0.858 -0.513,-1.445 -1.303,-1.785 -0.474,-0.204 -0.955,-0.166 -1.441,-0.078 -0.061,0.001 -0.106,0.028 -0.155,0.063 -0.574,0.407 -1.064,0.91 -1.581,1.38 -3.152,2.864 -6.29,5.743 -9.436,8.613 -2.412,2.199 -4.83,4.39 -7.241,6.589 C 19.469,0.34 18.059,1.634 16.657,2.936 16.488,3.092 16.388,3.079 16.221,2.948 15.627,2.483 15.021,2.035 14.42,1.579 11.948,-0.295 9.478,-2.17 7.005,-4.043 5.828,-4.936 4.731,-4.879 3.64,-3.877 c -0.731,0.67 -1.461,1.342 -2.203,2 C 0.835,-1.343 0.239,-0.811 0,0" /></g><g
           transform="translate(39.9346,0.9512)"
           id="g24"><path
             id="path26"
             style="fill:#eaefe8;fill-opacity:1;fill-rule:nonzero;stroke:none"
             d="m 0,0 c 0.486,-0.088 0.967,-0.126 1.441,0.078 0.79,0.34 1.299,0.927 1.303,1.784 0.02,4.267 10e-4,8.534 -0.004,12.799 0.002,8.48 0.005,16.958 0.007,25.437 C 2.744,44.254 2.741,48.41 2.738,52.566 2.736,54.153 1.73,55.022 0.159,54.798 0.113,54.791 0.065,54.796 0.02,54.796 c 0.077,0.114 0.208,0.145 0.322,0.193 0.992,0.418 1.975,0.383 2.943,-0.082 3.82,-1.836 7.642,-3.673 11.461,-5.513 0.906,-0.437 1.518,-1.142 1.84,-2.095 0.062,-0.184 0.113,-0.373 0.17,-0.559 V 7.995 C 16.653,7.887 16.661,7.74 16.621,7.611 16.352,6.726 15.843,6.015 15.03,5.569 14.421,5.234 13.771,4.974 13.144,4.672 11.284,3.778 9.426,2.883 7.569,1.982 6.135,1.286 4.71,0.567 3.269,-0.115 2.17,-0.636 1.068,-0.637 0,0" /></g></g></g></g></svg>