<?xml version="1.0" encoding="UTF-8" standalone="no"?>
<svg
   xmlns:dc="http://purl.org/dc/elements/1.1/"
   xmlns:cc="http://creativecommons.org/ns#"
   xmlns:rdf="http://www.w3.org/1999/02/22-rdf-syntax-ns#"
   xmlns:svg="http://www.w3.org/2000/svg"
   xmlns="http://www.w3.org/2000/svg"
   xmlns:sodipodi="http://sodipodi.sourceforge.net/DTD/sodipodi-0.dtd"
   xmlns:inkscape="http://www.inkscape.org/namespaces/inkscape"
   version="1.1"
   id="svg2"
   xml:space="preserve"
   width="75.58667"
   height="75.58667"
   viewBox="0 0 75.58667 75.58667"
   sodipodi:docname="icon_li.ai"><metadata
     id="metadata8"><rdf:RDF><cc:Work
         rdf:about=""><dc:format>image/svg+xml</dc:format><dc:type
           rdf:resource="http://purl.org/dc/dcmitype/StillImage" /></cc:Work></rdf:RDF></metadata><defs
     id="defs6"><clipPath
       clipPathUnits="userSpaceOnUse"
       id="clipPath18"><path
         d="M 0,56.69 H 56.69 V 0 H 0 Z"
         id="path16" /></clipPath></defs><sodipodi:namedview
     pagecolor="#ffffff"
     bordercolor="#666666"
     borderopacity="1"
     objecttolerance="10"
     gridtolerance="10"
     guidetolerance="10"
     inkscape:pageopacity="0"
     inkscape:pageshadow="2"
     inkscape:window-width="640"
     inkscape:window-height="480"
     id="namedview4" /><g
     id="g10"
     inkscape:groupmode="layer"
     inkscape:label="icon_li"
     transform="matrix(1.3333333,0,0,-1.3333333,0,75.586667)"><g
       id="g12"><g
         id="g14"
         clip-path="url(#clipPath18)"><g
           id="g20"
           transform="translate(48.4814,56.69)"><path
             d="m 0,0 h -40.273 c -4.534,0 -8.208,-3.675 -8.208,-8.208 v -40.273 c 0,-4.534 3.674,-8.209 8.208,-8.209 H 0 c 4.533,0 8.209,3.675 8.209,8.209 V -8.208 C 8.209,-3.675 4.533,0 0,0"
             style="fill:#a6d2e7;fill-opacity:1;fill-rule:nonzero;stroke:none"
             id="path22" /></g><g
           id="g24"
           transform="translate(30.3145,34.2969)"><path
             d="m 0,0 c 0.573,0.515 0.993,0.916 1.437,1.287 2.809,2.344 5.894,2.909 9.252,1.333 3.368,-1.581 5.065,-4.312 5.106,-7.99 0.056,-4.994 -0.018,-9.99 -10e-4,-14.985 0.002,-0.693 -0.211,-0.895 -0.892,-0.881 -1.885,0.041 -3.774,0.058 -5.659,-0.006 -0.826,-0.028 -0.982,0.281 -0.977,1.023 0.028,4.192 0.005,8.385 0.017,12.576 0.004,1.145 -0.19,2.208 -0.887,3.159 -1.41,1.92 -4.125,2.121 -5.737,0.385 -1.116,-1.202 -1.663,-2.636 -1.66,-4.282 0.005,-3.948 -0.017,-7.895 0.018,-11.842 0.006,-0.754 -0.152,-1.052 -0.973,-1.018 -1.604,0.066 -3.214,0.046 -4.82,0.007 -0.656,-0.016 -0.911,0.141 -0.909,0.86 0.024,7.476 0.02,14.952 0.004,22.428 -0.001,0.601 0.108,0.884 0.795,0.866 C -4.175,2.875 -2.462,2.884 -0.751,2.917 -0.144,2.928 0.045,2.705 0.01,2.125 -0.031,1.477 0,0.824 0,0"
             style="fill:#fdfdfe;fill-opacity:1;fill-rule:nonzero;stroke:none"
             id="path26" /></g><g
           id="g28"
           transform="translate(18.0288,25.0787)"><path
             d="m 0,0 c 0,-3.561 0.001,-7.121 0,-10.682 0,-1.32 -0.001,-1.32 -1.371,-1.32 -1.501,-10e-4 -3.002,0.023 -4.502,-0.011 -0.592,-0.013 -0.792,0.185 -0.791,0.777 0.014,7.54 0.016,15.079 -0.001,22.618 -0.001,0.622 0.255,0.758 0.812,0.749 1.64,-0.025 3.282,-0.042 4.921,0.007 0.727,0.022 0.954,-0.194 0.948,-0.934 C -0.019,7.469 0,3.734 0,0"
             style="fill:#ffffff;fill-opacity:1;fill-rule:nonzero;stroke:none"
             id="path30" /></g><g
           id="g32"
           transform="translate(18.8394,44.6607)"><path
             d="m 0,0 c -0.016,-2.277 -1.856,-4.116 -4.127,-4.123 -2.301,-0.007 -4.18,1.899 -4.152,4.213 0.026,2.266 1.887,4.126 4.138,4.136 C -1.855,4.236 0.016,2.326 0,0"
             style="fill:#fdfdfe;fill-opacity:1;fill-rule:nonzero;stroke:none"
             id="path34" /></g></g></g></g></svg>
