<?xml version="1.0" encoding="UTF-8" standalone="no"?>
<svg
   xmlns:dc="http://purl.org/dc/elements/1.1/"
   xmlns:cc="http://creativecommons.org/ns#"
   xmlns:rdf="http://www.w3.org/1999/02/22-rdf-syntax-ns#"
   xmlns:svg="http://www.w3.org/2000/svg"
   xmlns="http://www.w3.org/2000/svg"
   xmlns:sodipodi="http://sodipodi.sourceforge.net/DTD/sodipodi-0.dtd"
   xmlns:inkscape="http://www.inkscape.org/namespaces/inkscape"
   version="1.1"
   id="svg2"
   xml:space="preserve"
   width="75.58667"
   height="75.58667"
   viewBox="0 0 75.58667 75.58667"
   sodipodi:docname="icon_pyton.ai"><metadata
     id="metadata8"><rdf:RDF><cc:Work
         rdf:about=""><dc:format>image/svg+xml</dc:format><dc:type
           rdf:resource="http://purl.org/dc/dcmitype/StillImage" /></cc:Work></rdf:RDF></metadata><defs
     id="defs6"><clipPath
       clipPathUnits="userSpaceOnUse"
       id="clipPath18"><path
         d="M 0,56.69 H 56.69 V 0 H 0 Z"
         id="path16" /></clipPath></defs><sodipodi:namedview
     pagecolor="#ffffff"
     bordercolor="#666666"
     borderopacity="1"
     objecttolerance="10"
     gridtolerance="10"
     guidetolerance="10"
     inkscape:pageopacity="0"
     inkscape:pageshadow="2"
     inkscape:window-width="640"
     inkscape:window-height="480"
     id="namedview4" /><g
     id="g10"
     inkscape:groupmode="layer"
     inkscape:label="icon_pyton"
     transform="matrix(1.3333333,0,0,-1.3333333,0,75.586667)"><g
       id="g12"><g
         id="g14"
         clip-path="url(#clipPath18)"><g
           id="g20"
           transform="translate(36.0205,9.6455)"><path
             d="m 0,0 c -1.384,0.008 -2.601,-1.156 -2.627,-2.514 -0.027,-1.414 1.209,-2.675 2.618,-2.672 1.341,0.005 2.542,1.222 2.561,2.597 C 2.57,-1.228 1.369,-0.008 0,0 M 3.329,5.199 C 0.015,5.199 -3.3,5.187 -6.614,5.209 -7.327,5.213 -7.787,5.17 -7.769,4.232 -7.751,3.288 -7.193,3.408 -6.612,3.408 -2.939,3.41 0.734,3.366 4.405,3.435 5.563,3.456 6.131,3.242 5.965,1.937 5.847,1.012 5.896,0.057 5.95,-0.881 6.129,-3.992 4.659,-6.115 1.967,-7.434 c -4.145,-2.028 -8.559,-2.48 -13.087,-1.965 -2.227,0.252 -4.401,0.785 -6.441,1.76 -2.932,1.404 -4.546,3.574 -4.438,6.985 0.121,3.803 0.026,7.613 0.029,11.421 0.002,1.848 0.526,3.534 1.66,5.001 1.361,1.759 3.092,2.753 5.395,2.766 5.194,0.027 10.394,-0.224 15.581,0.126 4.637,0.314 7.71,3.696 7.732,8.316 0.008,1.478 0.046,2.958 -0.014,4.433 -0.037,0.893 0.167,1.325 1.169,1.237 0.977,-0.087 1.968,-0.019 2.954,-0.026 2.779,-0.02 4.774,-1.281 5.99,-3.782 1.09,-2.244 1.513,-4.672 1.908,-7.097 C 21.12,17.364 20.349,13.198 18.513,9.195 17.271,6.486 15.318,5.031 12.197,5.171 9.246,5.303 6.286,5.199 3.329,5.199"
             style="fill:#d4915d;fill-opacity:1;fill-rule:nonzero;stroke:none"
             id="path22" /></g><g
           id="g24"
           transform="translate(20.6152,47.4194)"><path
             d="M 0,0 C 1.431,0.01 2.524,1.105 2.529,2.536 2.535,3.962 1.437,5.094 0.032,5.113 -1.439,5.132 -2.601,3.97 -2.575,2.504 -2.55,1.095 -1.415,-0.009 0,0 m -2.253,-5.148 c 2.956,0 5.912,0.013 8.868,-0.01 0.677,-0.006 1.078,0.07 1.064,0.921 -0.015,0.879 -0.551,0.751 -1.077,0.751 -3.807,0.001 -7.614,0.028 -11.42,-0.02 -0.919,-0.011 -1.27,0.216 -1.213,1.183 0.111,1.874 -0.035,3.754 0.152,5.635 0.224,2.26 1.386,3.718 3.456,4.506 2.887,1.1 5.912,1.361 8.965,1.396 2.777,0.032 5.552,-0.046 8.286,-0.602 2.212,-0.449 4.126,-1.451 5.603,-3.191 0.96,-1.129 1.461,-2.434 1.455,-3.939 -0.017,-3.762 -0.151,-7.531 0.034,-11.285 0.197,-4.02 -3.199,-7.605 -7.645,-7.624 -4.568,-0.02 -9.136,0.002 -13.705,-0.007 -5.218,-0.009 -8.862,-3.578 -8.975,-8.809 -0.037,-1.701 -0.072,-3.406 0.017,-5.103 0.055,-1.048 -0.326,-1.344 -1.299,-1.241 -0.664,0.069 -1.341,0.012 -2.013,0.012 -3.897,0.003 -6.109,1.484 -7.415,5.151 -1.908,5.356 -1.985,10.787 -0.293,16.207 1.2,3.845 4.334,6.02 8.556,6.063 2.866,0.029 5.733,0.006 8.599,0.006"
             style="fill:#84969f;fill-opacity:1;fill-rule:nonzero;stroke:none"
             id="path26" /></g></g></g></g></svg>
