<?xml version="1.0" encoding="UTF-8" standalone="no"?>
<svg
   xmlns:dc="http://purl.org/dc/elements/1.1/"
   xmlns:cc="http://creativecommons.org/ns#"
   xmlns:rdf="http://www.w3.org/1999/02/22-rdf-syntax-ns#"
   xmlns:svg="http://www.w3.org/2000/svg"
   xmlns="http://www.w3.org/2000/svg"
   xmlns:sodipodi="http://sodipodi.sourceforge.net/DTD/sodipodi-0.dtd"
   xmlns:inkscape="http://www.inkscape.org/namespaces/inkscape"
   version="1.1"
   id="svg2"
   xml:space="preserve"
   width="75.58667"
   height="75.58667"
   viewBox="0 0 75.58667 75.58667"
   sodipodi:docname="icon_github.ai"><metadata
     id="metadata8"><rdf:RDF><cc:Work
         rdf:about=""><dc:format>image/svg+xml</dc:format><dc:type
           rdf:resource="http://purl.org/dc/dcmitype/StillImage" /></cc:Work></rdf:RDF></metadata><defs
     id="defs6"><clipPath
       clipPathUnits="userSpaceOnUse"
       id="clipPath18"><path
         d="M 0,56.69 H 56.69 V 0 H 0 Z"
         id="path16" /></clipPath></defs><sodipodi:namedview
     pagecolor="#ffffff"
     bordercolor="#666666"
     borderopacity="1"
     objecttolerance="10"
     gridtolerance="10"
     guidetolerance="10"
     inkscape:pageopacity="0"
     inkscape:pageshadow="2"
     inkscape:window-width="640"
     inkscape:window-height="480"
     id="namedview4" /><g
     id="g10"
     inkscape:groupmode="layer"
     inkscape:label="icon_github"
     transform="matrix(1.3333333,0,0,-1.3333333,0,75.586667)"><g
       id="g12"><g
         id="g14"
         clip-path="url(#clipPath18)"><g
           id="g20"
           transform="translate(56.7217,27.6631)"><path
             d="m 0,0 c -0.018,-0.279 -0.037,-0.559 -0.052,-0.838 -0.07,-1.315 -0.237,-2.619 -0.493,-3.912 -0.661,-3.336 -1.885,-6.452 -3.677,-9.342 -2.397,-3.867 -5.543,-6.985 -9.427,-9.355 -1.746,-1.065 -3.588,-1.924 -5.527,-2.576 -0.375,-0.126 -0.761,-0.128 -1.139,-0.007 -0.548,0.176 -0.89,0.669 -0.895,1.293 -0.005,0.602 0.006,1.206 0.007,1.809 0.007,2.141 0.031,4.282 0.011,6.421 -0.012,1.257 -0.282,2.465 -0.906,3.574 -0.238,0.424 -0.531,0.807 -0.889,1.137 -0.024,0.022 -0.056,0.032 -0.084,0.048 0.008,0.014 0.015,0.027 0.023,0.04 0.203,0.026 0.406,0.051 0.61,0.078 1.852,0.248 3.667,0.642 5.387,1.397 3.162,1.386 5.196,3.758 6.167,7.057 0.323,1.099 0.533,2.219 0.608,3.361 0.054,0.83 0.099,1.664 0.079,2.495 -0.066,2.667 -0.979,5.013 -2.744,7.019 -0.106,0.12 -0.122,0.212 -0.069,0.361 0.425,1.192 0.556,2.424 0.48,3.683 -0.073,1.203 -0.35,2.361 -0.781,3.485 -0.038,0.099 -0.087,0.146 -0.192,0.161 -0.545,0.085 -1.084,0.025 -1.618,-0.082 -1.27,-0.253 -2.452,-0.749 -3.578,-1.371 -0.784,-0.433 -1.54,-0.918 -2.304,-1.388 -0.103,-0.064 -0.189,-0.078 -0.306,-0.046 -1.305,0.36 -2.633,0.605 -3.98,0.752 -1.431,0.156 -2.864,0.2 -4.301,0.126 -1.885,-0.098 -3.741,-0.383 -5.561,-0.886 -0.099,-0.028 -0.172,-0.013 -0.255,0.043 -1.231,0.82 -2.505,1.562 -3.877,2.125 -0.849,0.349 -1.717,0.636 -2.636,0.722 -0.346,0.033 -0.697,0.002 -1.045,-0.01 -0.047,-0.002 -0.114,-0.061 -0.132,-0.108 -0.634,-1.607 -0.929,-3.269 -0.791,-4.997 0.061,-0.765 0.208,-1.513 0.474,-2.233 0.048,-0.13 0.038,-0.21 -0.056,-0.315 -1.098,-1.236 -1.884,-2.647 -2.341,-4.239 -0.341,-1.191 -0.459,-2.408 -0.435,-3.644 0.037,-1.877 0.256,-3.725 0.859,-5.513 0.595,-1.766 1.531,-3.318 2.917,-4.582 1.109,-1.013 2.392,-1.736 3.79,-2.267 1.268,-0.482 2.582,-0.79 3.921,-0.997 0.445,-0.068 0.892,-0.127 1.342,-0.192 -0.005,-0.016 -0.005,-0.031 -0.013,-0.038 -0.851,-0.783 -1.318,-1.778 -1.591,-2.879 -0.062,-0.25 -0.094,-0.507 -0.149,-0.758 -0.011,-0.05 -0.05,-0.113 -0.093,-0.132 -1.171,-0.516 -2.391,-0.794 -3.676,-0.683 -1.465,0.127 -2.672,0.775 -3.628,1.883 -0.293,0.34 -0.554,0.712 -0.798,1.089 -0.617,0.955 -1.35,1.793 -2.334,2.387 -0.865,0.522 -1.796,0.71 -2.795,0.515 -0.115,-0.024 -0.232,-0.065 -0.336,-0.118 -0.228,-0.118 -0.291,-0.311 -0.187,-0.546 0.115,-0.261 0.314,-0.455 0.53,-0.627 0.198,-0.157 0.402,-0.311 0.622,-0.433 0.532,-0.295 0.943,-0.718 1.308,-1.19 0.744,-0.961 1.361,-1.995 1.817,-3.127 0.595,-1.474 1.694,-2.42 3.177,-2.94 1.116,-0.389 2.271,-0.488 3.442,-0.456 0.885,0.025 1.762,0.127 2.632,0.286 0.049,0.008 0.099,0.011 0.162,0.018 v -0.143 c 0.013,-1.676 0.029,-3.352 0.031,-5.028 0.001,-0.221 -0.035,-0.455 -0.115,-0.658 -0.216,-0.554 -0.674,-0.77 -1.239,-0.811 -0.398,-0.029 -0.761,0.098 -1.125,0.23 -4.33,1.56 -8.075,4.013 -11.213,7.378 -3.016,3.233 -5.155,6.975 -6.419,11.214 -0.491,1.648 -0.83,3.328 -0.997,5.039 -0.067,0.682 -0.097,1.368 -0.145,2.052 -0.004,0.053 -0.015,0.107 -0.022,0.162 v 1.629 c 0.007,0.059 0.02,0.117 0.022,0.175 0.053,1.693 0.26,3.366 0.622,5.019 0.944,4.305 2.788,8.183 5.539,11.626 2.462,3.08 5.439,5.541 8.925,7.384 2.5,1.321 5.143,2.24 7.924,2.761 1.195,0.224 2.399,0.373 3.614,0.439 0.27,0.015 0.54,0.035 0.81,0.052 h 1.657 c 0.055,-0.007 0.108,-0.018 0.163,-0.022 0.578,-0.038 1.157,-0.064 1.735,-0.115 1.552,-0.135 3.081,-0.408 4.583,-0.819 6.129,-1.677 11.152,-5.026 15.063,-10.029 2.389,-3.054 4.049,-6.476 5.019,-10.23 C -0.432,6.057 -0.15,4.242 -0.052,2.398 -0.037,2.124 -0.018,1.849 0,1.574 Z"
             style="fill:#000000;fill-opacity:1;fill-rule:nonzero;stroke:none"
             id="path22" /></g></g></g></g></svg>
