<?xml version="1.0" encoding="iso-8859-1"?>
<!-- Generator: Adobe Illustrator 21.1.0, SVG Export Plug-In . SVG Version: 6.00 Build 0)  -->
<svg version="1.1" id="&#x421;&#x43B;&#x43E;&#x439;_1"
	 xmlns="http://www.w3.org/2000/svg" xmlns:xlink="http://www.w3.org/1999/xlink" x="0px" y="0px" viewBox="0 0 56.69 56.69"
	 style="enable-background:new 0 0 56.69 56.69;" xml:space="preserve">
<path style="fill:#A6CDD8;" d="M56.565,12.953c-0.107-0.872-0.278-1.718-0.542-2.542c-0.531-1.655-1.307-3.181-2.391-4.562
	c-0.732-0.933-1.538-1.782-2.441-2.531c-0.999-0.828-2.103-1.513-3.31-2.013c-0.537-0.222-1.066-0.484-1.624-0.629
	c-0.768-0.2-1.535-0.399-2.335-0.499c-0.672-0.084-1.348-0.142-2.014-0.147c-4.086-0.031-8.172-0.028-12.257-0.009
	c-5.117,0.023-10.234-0.091-15.35,0.059c-0.621,0.018-1.239,0.031-1.852,0.123c-1.452,0.217-2.83,0.683-4.143,1.325
	C6.604,2.36,5.128,3.503,3.851,4.904C3.484,5.308,3.132,5.723,2.827,6.176C2.23,7.023,1.706,7.912,1.282,8.859
	c-0.674,1.506-1.117,3.081-1.213,4.722c-0.088,1.501-0.057,3.01-0.061,4.515C-0.01,26.151,0.008,34.204,0.01,42.258
	c0,0.568,0.057,1.135,0.153,1.688c0.215,1.242,0.512,2.461,1.019,3.63c0.654,1.508,1.499,2.883,2.599,4.1
	c1.312,1.452,2.825,2.642,4.596,3.496c1.192,0.575,2.432,0.994,3.731,1.241c0.54,0.103,1.078,0.244,1.629,0.256
	c0.864,0.019,1.728,0.003,2.592,0.004c2.553,0.002,5.105,0.003,7.658,0.005c1.584,0.289,3.214,0.448,4.882,0.448
	c1.655,0,3.273-0.157,4.846-0.441c0.254,0,0.509,0,0.763,0c2.209,0.001,4.419-0.006,6.628-0.003c0.96,0.001,1.924,0.014,2.871-0.141
	c1.169-0.191,2.317-0.482,3.418-0.937c1.142-0.472,2.216-1.06,3.205-1.802c0.146-0.102,0.298-0.197,0.437-0.307
	c0.722-0.569,1.375-1.212,1.984-1.899c1.094-1.234,1.949-2.61,2.573-4.14c0.664-1.63,1.083-3.312,1.086-5.072
	c0.013-8.362,0.012-16.724-0.002-25.086C56.677,15.851,56.743,14.404,56.565,12.953z"/>
<path style="fill:#FFFFFF;" d="M45.326,22.834c-0.791,5.147-1.623,10.287-2.537,15.413c-0.333,1.866-0.626,3.74-1.056,5.588
	c-0.124,0.534-0.31,1.047-0.559,1.536c-0.698,1.373-1.63,1.807-3.136,1.47c-0.994-0.222-1.846-0.736-2.674-1.295
	c-3.559-2.404-7.116-4.809-10.671-7.219c-0.372-0.252-0.745-0.51-1.084-0.804c-1.229-1.066-1.332-1.813-0.469-3.174
	c2.433-2.555,5.1-4.866,7.645-7.304c1.662-1.592,3.365-3.144,4.901-4.863c0.107-0.119,0.219-0.243,0.29-0.383
	c0.225-0.446-0.067-0.899-0.564-0.903c-0.342-0.003-0.614,0.168-0.887,0.34c-3.88,2.446-7.655,5.051-11.468,7.599
	c-1.592,1.064-3.168,2.152-4.772,3.198c-1.234,0.805-2.562,1.368-4.082,1.22c-1.333-0.129-2.624-0.48-3.903-0.861
	c-1.34-0.399-2.67-0.831-4.001-1.26c-0.475-0.153-0.936-0.347-1.343-0.645c-0.745-0.547-0.804-1.281-0.145-1.923
	c0.563-0.548,1.258-0.889,1.968-1.198c3.332-1.449,6.667-2.89,9.999-4.339c2.869-1.249,5.725-2.53,8.605-3.753
	c4.075-1.731,8.144-3.481,12.276-5.073c1.723-0.664,3.432-1.373,5.225-1.838c0.725-0.188,1.455-0.282,2.191-0.061
	c0.584,0.175,0.961,0.546,1.117,1.152c0.223,0.864,0.138,1.726,0.027,2.589C45.927,18.308,45.625,20.571,45.326,22.834z"/>
</svg>
