<?xml version="1.0" encoding="UTF-8" standalone="no"?>
<svg
   xmlns:dc="http://purl.org/dc/elements/1.1/"
   xmlns:cc="http://creativecommons.org/ns#"
   xmlns:rdf="http://www.w3.org/1999/02/22-rdf-syntax-ns#"
   xmlns:svg="http://www.w3.org/2000/svg"
   xmlns="http://www.w3.org/2000/svg"
   xmlns:sodipodi="http://sodipodi.sourceforge.net/DTD/sodipodi-0.dtd"
   xmlns:inkscape="http://www.inkscape.org/namespaces/inkscape"
   version="1.1"
   id="svg2"
   xml:space="preserve"
   width="75.58667"
   height="75.58667"
   viewBox="0 0 75.58667 75.58667"
   sodipodi:docname="icon_php.ai"><metadata
     id="metadata8"><rdf:RDF><cc:Work
         rdf:about=""><dc:format>image/svg+xml</dc:format><dc:type
           rdf:resource="http://purl.org/dc/dcmitype/StillImage" /></cc:Work></rdf:RDF></metadata><defs
     id="defs6"><clipPath
       clipPathUnits="userSpaceOnUse"
       id="clipPath18"><path
         d="M 0,56.69 H 56.69 V 0 H 0 Z"
         id="path16" /></clipPath></defs><sodipodi:namedview
     pagecolor="#ffffff"
     bordercolor="#666666"
     borderopacity="1"
     objecttolerance="10"
     gridtolerance="10"
     guidetolerance="10"
     inkscape:pageopacity="0"
     inkscape:pageshadow="2"
     inkscape:window-width="640"
     inkscape:window-height="480"
     id="namedview4" /><g
     id="g10"
     inkscape:groupmode="layer"
     inkscape:label="icon_php"
     transform="matrix(1.3333333,0,0,-1.3333333,0,75.586667)"><g
       id="g12"><g
         id="g14"
         clip-path="url(#clipPath18)"><g
           id="g20"
           transform="translate(23.5044,31.9897)"><path
             d="m 0,0 c -0.009,0.002 -0.019,0.005 -0.028,0.008 -0.016,0.059 -0.032,0.117 -0.046,0.177 -0.364,1.464 -1.25,2.49 -2.622,3.101 -0.906,0.403 -1.867,0.561 -2.85,0.566 -2.239,0.012 -4.478,0.002 -6.717,0.01 -0.333,0.002 -0.648,-0.199 -0.716,-0.591 -0.104,-0.591 -0.224,-1.179 -0.339,-1.767 -0.307,-1.579 -0.618,-3.157 -0.924,-4.736 -0.348,-1.793 -0.694,-3.587 -1.042,-5.38 -0.231,-1.191 -0.464,-2.381 -0.695,-3.572 -0.083,-0.433 0.194,-0.788 0.628,-0.791 1.127,-0.005 2.253,-0.004 3.38,0 0.324,10e-4 0.558,0.192 0.631,0.507 0.046,0.199 0.082,0.401 0.121,0.601 0.182,0.937 0.363,1.874 0.545,2.811 0.042,0.214 0.043,0.214 0.257,0.214 0.614,0 1.228,0.003 1.842,-10e-4 0.779,-0.005 1.556,0.016 2.327,0.13 0.692,0.101 1.366,0.265 2.003,0.559 1.254,0.579 2.234,1.477 3.016,2.604 0.05,0.07 0.1,0.141 0.164,0.233 0.022,-0.096 0.002,-0.159 -0.011,-0.224 -0.165,-0.849 -0.33,-1.699 -0.496,-2.548 -0.015,-0.082 -0.011,-0.161 0.005,-0.244 0.059,-0.285 0.336,-0.515 0.675,-0.512 1.079,0.009 2.158,0.012 3.236,-0.002 0.374,-0.005 0.665,0.225 0.737,0.618 0.199,1.093 0.417,2.182 0.628,3.272 0.199,1.024 0.399,2.048 0.599,3.071 0.112,0.582 0.224,1.165 0.337,1.747 0.038,0.193 0.04,0.197 0.191,0.197 C 5.627,0.057 6.419,0.056 7.211,0.05 7.437,0.048 7.657,0.001 7.875,-0.062 8.036,-0.11 8.113,-0.211 8.121,-0.372 8.131,-0.577 8.136,-0.782 8.098,-0.985 7.995,-1.541 7.891,-2.097 7.783,-2.652 7.462,-4.297 7.138,-5.943 6.82,-7.588 6.78,-7.795 6.717,-8 6.72,-8.213 c 0.005,-0.313 0.217,-0.569 0.522,-0.619 0.08,-0.013 0.163,-0.01 0.245,-0.01 h 3.031 c 0.193,0 0.39,-0.019 0.579,0.075 0.003,-0.04 0.009,-0.061 0.006,-0.079 -0.168,-0.863 -0.336,-1.727 -0.504,-2.589 -0.046,-0.234 -0.094,-0.468 -0.138,-0.702 -0.063,-0.35 0.044,-0.611 0.307,-0.759 0.123,-0.069 0.257,-0.082 0.396,-0.082 1.071,0.002 2.143,0.009 3.214,-0.003 0.371,-0.005 0.671,0.207 0.748,0.629 0.202,1.106 0.425,2.209 0.641,3.312 0.039,0.197 0.041,0.198 0.249,0.198 0.69,0 1.379,0.002 2.068,-10e-4 0.786,-0.003 1.568,0.039 2.344,0.169 0.864,0.143 1.687,0.404 2.429,0.874 1.71,1.082 2.868,2.58 3.376,4.553 0.259,1.007 0.371,2.026 0.198,3.061 -0.281,1.678 -1.221,2.842 -2.776,3.508 -0.885,0.379 -1.822,0.526 -2.776,0.531 -2.232,0.01 -4.464,0.005 -6.697,0.005 -0.428,0 -0.65,-0.191 -0.732,-0.617 L 12.99,0.852 C 12.979,0.797 12.973,0.739 12.909,0.676 12.918,0.82 12.888,0.933 12.866,1.046 12.722,1.775 12.385,2.39 11.793,2.854 11.418,3.147 10.994,3.347 10.542,3.49 9.708,3.754 8.847,3.841 7.979,3.854 7.214,3.864 6.45,3.857 5.685,3.858 5.421,3.859 5.424,3.858 5.475,4.119 5.674,5.142 5.867,6.167 6.073,7.189 6.167,7.651 5.808,8.002 5.391,7.997 4.312,7.983 3.233,7.993 2.155,7.992 1.751,7.992 1.522,7.804 1.442,7.404 1.32,6.796 1.202,6.187 1.084,5.579 0.861,4.428 0.639,3.277 0.416,2.126 0.278,1.417 0.139,0.708 0,0 m 4.732,-18.012 c -0.688,-0.02 -1.492,0.018 -2.296,0.051 -0.893,0.036 -1.784,0.098 -2.674,0.181 -0.97,0.091 -1.939,0.201 -2.903,0.345 -2.031,0.303 -4.038,0.725 -6.012,1.295 -1.89,0.546 -3.735,1.216 -5.51,2.069 -1.846,0.889 -3.585,1.947 -5.126,3.311 -1.028,0.909 -1.925,1.932 -2.609,3.131 -0.558,0.977 -0.928,2.019 -1.058,3.139 -0.147,1.279 0.042,2.514 0.519,3.709 0.432,1.084 1.064,2.043 1.827,2.918 1.232,1.415 2.706,2.533 4.307,3.493 1.604,0.96 3.298,1.728 5.05,2.371 2.188,0.803 4.435,1.391 6.723,1.825 0.897,0.17 1.799,0.312 2.705,0.429 0.919,0.119 1.84,0.22 2.765,0.289 0.68,0.051 1.361,0.092 2.042,0.125 0.573,0.028 1.146,0.016 1.719,0.042 0.887,0.041 1.774,-0.003 2.66,-0.027 0.954,-0.026 1.906,-0.092 2.857,-0.178 0.809,-0.073 1.615,-0.155 2.419,-0.265 1.358,-0.185 2.706,-0.421 4.045,-0.718 1.666,-0.369 3.306,-0.828 4.914,-1.399 2.122,-0.753 4.159,-1.686 6.056,-2.908 1.222,-0.786 2.355,-1.681 3.347,-2.747 0.914,-0.983 1.668,-2.072 2.156,-3.331 0.264,-0.683 0.431,-1.39 0.499,-2.122 0.133,-1.433 -0.157,-2.781 -0.771,-4.069 -0.45,-0.945 -1.05,-1.786 -1.75,-2.56 -1.216,-1.345 -2.649,-2.415 -4.198,-3.34 -1.54,-0.919 -3.164,-1.659 -4.844,-2.283 -2.249,-0.835 -4.559,-1.445 -6.916,-1.886 -0.952,-0.178 -1.907,-0.329 -2.867,-0.45 -0.785,-0.098 -1.57,-0.185 -2.359,-0.247 -0.632,-0.05 -1.265,-0.095 -1.898,-0.124 -0.9,-0.043 -1.8,-0.073 -2.819,-0.069"
             style="fill:#b6d6e0;fill-opacity:1;fill-rule:nonzero;stroke:none"
             id="path22" /></g><g
           id="g24"
           transform="translate(42.0889,32.7349)"><path
             d="m 0,0 v 0.012 c -0.478,0 -0.955,-0.003 -1.433,0.003 -0.111,0.002 -0.154,-0.039 -0.172,-0.142 -0.057,-0.316 -0.119,-0.63 -0.179,-0.944 -0.295,-1.512 -0.59,-3.023 -0.884,-4.534 -0.051,-0.261 -0.097,-0.522 -0.15,-0.783 -0.014,-0.07 10e-4,-0.104 0.075,-0.104 0.034,0.001 0.067,0 0.101,0 0.676,0 1.352,-0.004 2.027,0.001 0.54,0.004 1.075,0.057 1.602,0.183 0.962,0.228 1.703,0.746 2.145,1.647 0.432,0.886 0.649,1.826 0.604,2.809 C 3.697,-0.993 3.359,-0.469 2.457,-0.19 2.09,-0.077 1.713,-0.014 1.33,-0.003 0.888,0.01 0.443,0 0,0 m -7.492,-13.045 c 0.079,0.412 0.157,0.819 0.236,1.227 0.309,1.592 0.618,3.185 0.929,4.776 0.294,1.512 0.59,3.024 0.884,4.536 0.294,1.511 0.586,3.024 0.879,4.536 0.027,0.139 0.019,0.319 0.104,0.405 0.089,0.089 0.273,0.029 0.414,0.029 2.109,0 4.218,0.003 6.327,-0.005 C 3.133,2.456 3.969,2.334 4.761,2.005 6.2,1.409 7.078,0.342 7.225,-1.214 7.44,-3.517 6.75,-5.519 5.054,-7.138 4.062,-8.084 2.887,-8.629 1.533,-8.815 0.848,-8.91 0.161,-8.94 -0.528,-8.942 c -0.867,-10e-4 -1.734,0 -2.601,0 -0.183,0 -0.184,-10e-4 -0.219,-0.179 -0.244,-1.251 -0.487,-2.501 -0.73,-3.752 -0.008,-0.04 -0.02,-0.08 -0.026,-0.12 -0.008,-0.055 -0.034,-0.086 -0.094,-0.081 -0.028,0.002 -0.055,0 -0.082,0 -1.024,0 -2.047,0 -3.072,10e-4 -0.04,0 -0.082,-0.01 -0.14,0.028"
             style="fill:#010101;fill-opacity:1;fill-rule:nonzero;stroke:none"
             id="path26" /></g><g
           id="g28"
           transform="translate(12.8228,26.2695)"><path
             d="m 0,0 c 0.051,-0.034 0.093,-0.026 0.133,-0.026 0.709,0 1.419,-0.006 2.129,0.002 C 2.788,-0.02 3.31,0.033 3.823,0.158 4.712,0.373 5.435,0.826 5.876,1.648 6.407,2.639 6.648,3.7 6.547,4.823 6.488,5.473 6.155,5.945 5.531,6.187 5.461,6.215 5.391,6.242 5.32,6.265 4.915,6.395 4.497,6.461 4.073,6.466 3.186,6.478 2.299,6.475 1.412,6.477 1.256,6.478 1.256,6.475 1.224,6.309 0.86,4.443 0.497,2.577 0.133,0.711 0.086,0.473 0.043,0.232 0,0 m -4.663,-6.586 c 0.153,0.788 0.304,1.578 0.458,2.367 0.267,1.371 0.535,2.742 0.802,4.115 0.306,1.579 0.611,3.158 0.919,4.737 0.266,1.371 0.534,2.742 0.801,4.114 0.035,0.182 0.034,0.183 0.216,0.183 C 0.724,8.929 2.915,8.932 5.106,8.925 5.917,8.922 6.713,8.811 7.473,8.517 9.04,7.911 9.961,6.774 10.072,5.094 10.249,2.422 9.266,0.255 7.077,-1.327 6.281,-1.901 5.372,-2.199 4.407,-2.344 3.71,-2.448 3.009,-2.476 2.306,-2.477 1.445,-2.478 0.585,-2.476 -0.275,-2.478 c -0.256,0 -0.202,0.034 -0.251,-0.214 -0.242,-1.224 -0.475,-2.45 -0.711,-3.674 -0.047,-0.242 -0.047,-0.242 -0.29,-0.242 -0.97,0 -1.939,0 -2.908,10e-4 -0.074,0 -0.15,-0.017 -0.228,0.021"
             style="fill:#010101;fill-opacity:1;fill-rule:nonzero;stroke:none"
             id="path30" /></g><g
           id="g32"
           transform="translate(28.9424,39.3125)"><path
             d="m 0,0 c -0.265,-1.367 -0.529,-2.724 -0.794,-4.091 0.074,-0.037 0.149,-0.021 0.22,-0.021 1.098,-0.003 2.197,0.005 3.296,-0.011 0.731,-0.011 1.455,-0.101 2.158,-0.32 0.241,-0.075 0.474,-0.17 0.697,-0.29 0.729,-0.391 1.122,-1.01 1.241,-1.817 0.092,-0.617 0.02,-1.225 -0.097,-1.83 -0.351,-1.807 -0.702,-3.612 -1.054,-5.419 -0.103,-0.528 -0.21,-1.055 -0.31,-1.585 -0.017,-0.095 -0.045,-0.138 -0.151,-0.137 -1.065,0.003 -2.13,0.001 -3.194,0.002 -0.02,0 -0.039,0.007 -0.055,0.01 -0.033,0.042 -0.016,0.083 -0.009,0.12 0.279,1.432 0.561,2.863 0.835,4.295 0.179,0.931 0.38,1.857 0.53,2.792 0.044,0.277 0.046,0.557 -0.013,0.835 -0.067,0.311 -0.245,0.524 -0.537,0.649 -0.313,0.133 -0.644,0.189 -0.978,0.193 -0.982,0.012 -1.965,0.005 -2.948,0.013 -0.112,0.001 -0.133,-0.051 -0.15,-0.14 -0.114,-0.596 -0.231,-1.191 -0.347,-1.787 -0.308,-1.585 -0.616,-3.171 -0.923,-4.756 l -0.39,-2.007 c -0.009,-0.047 -0.024,-0.093 -0.03,-0.14 -0.008,-0.06 -0.042,-0.08 -0.097,-0.078 -0.027,10e-4 -0.055,0 -0.082,0 h -3.01 c -0.054,0 -0.11,-0.009 -0.172,0.026 0.072,0.369 0.143,0.743 0.216,1.117 0.279,1.439 0.56,2.876 0.839,4.314 0.309,1.586 0.616,3.172 0.924,4.757 0.28,1.438 0.559,2.877 0.839,4.315 0.057,0.294 0.114,0.589 0.169,0.884 0.015,0.081 0.038,0.131 0.14,0.13 C -2.179,0.019 -1.121,0.021 -0.063,0.02 -0.05,0.02 -0.038,0.012 0,0"
             style="fill:#010101;fill-opacity:1;fill-rule:nonzero;stroke:none"
             id="path34" /></g><g
           id="g36"
           transform="translate(42.1318,32.1113)"><path
             d="M 0,0 C 0.443,0 0.888,0.009 1.33,-0.028 1.65,-0.055 1.968,-0.097 2.272,-0.2 2.813,-0.383 3.029,-0.673 3.05,-1.246 3.078,-2.029 2.917,-2.778 2.626,-3.5 2.523,-3.754 2.386,-3.99 2.218,-4.207 1.876,-4.649 1.41,-4.886 0.885,-5.031 c -0.484,-0.135 -0.98,-0.177 -1.477,-0.194 -0.436,-0.015 -0.873,-0.004 -1.31,-0.003 -0.186,0 -0.197,0.014 -0.161,0.202 0.165,0.842 0.33,1.685 0.494,2.527 0.146,0.749 0.292,1.499 0.438,2.248 0.008,0.04 0.021,0.079 0.024,0.12 0.009,0.103 0.068,0.133 0.166,0.132 C -0.628,-0.002 -0.313,0 0,0"
             style="fill:#b6d6e0;fill-opacity:1;fill-rule:nonzero;stroke:none"
             id="path38" /></g><g
           id="g40"
           transform="translate(13.6045,26.9082)"><path
             d="M 0,0 C 0.097,0.504 0.191,0.999 0.287,1.493 0.516,2.669 0.746,3.846 0.975,5.023 1.01,5.202 1.01,5.203 1.201,5.203 1.781,5.204 2.361,5.214 2.941,5.2 3.403,5.188 3.867,5.161 4.314,5.019 4.439,4.979 4.558,4.929 4.671,4.867 4.858,4.764 4.988,4.613 5.057,4.408 5.152,4.125 5.173,3.833 5.147,3.539 5.097,2.974 4.991,2.419 4.792,1.885 4.662,1.538 4.492,1.213 4.253,0.927 3.88,0.48 3.378,0.265 2.831,0.135 2.345,0.019 1.848,-0.017 1.35,-0.024 0.975,-0.029 0.599,-0.026 0.224,-0.024 0.157,-0.024 0.088,-0.037 0,0"
             style="fill:#b6d6e0;fill-opacity:1;fill-rule:nonzero;stroke:none"
             id="path42" /></g></g></g></g></svg>
