<?xml version="1.0" encoding="UTF-8" standalone="no"?>
<svg
   xmlns:dc="http://purl.org/dc/elements/1.1/"
   xmlns:cc="http://creativecommons.org/ns#"
   xmlns:rdf="http://www.w3.org/1999/02/22-rdf-syntax-ns#"
   xmlns:svg="http://www.w3.org/2000/svg"
   xmlns="http://www.w3.org/2000/svg"
   xmlns:sodipodi="http://sodipodi.sourceforge.net/DTD/sodipodi-0.dtd"
   xmlns:inkscape="http://www.inkscape.org/namespaces/inkscape"
   version="1.1"
   id="svg2"
   xml:space="preserve"
   width="75.58667"
   height="75.58667"
   viewBox="0 0 75.58667 75.58667"
   sodipodi:docname="icon_wordpress.ai"><metadata
     id="metadata8"><rdf:RDF><cc:Work
         rdf:about=""><dc:format>image/svg+xml</dc:format><dc:type
           rdf:resource="http://purl.org/dc/dcmitype/StillImage" /></cc:Work></rdf:RDF></metadata><defs
     id="defs6"><clipPath
       clipPathUnits="userSpaceOnUse"
       id="clipPath18"><path
         d="M 0,56.69 H 56.69 V 0 H 0 Z"
         id="path16" /></clipPath></defs><sodipodi:namedview
     pagecolor="#ffffff"
     bordercolor="#666666"
     borderopacity="1"
     objecttolerance="10"
     gridtolerance="10"
     guidetolerance="10"
     inkscape:pageopacity="0"
     inkscape:pageshadow="2"
     inkscape:window-width="640"
     inkscape:window-height="480"
     id="namedview4" /><g
     id="g10"
     inkscape:groupmode="layer"
     inkscape:label="icon_wordpress"
     transform="matrix(1.3333333,0,0,-1.3333333,0,75.586667)"><g
       id="g12"><g
         id="g14"
         clip-path="url(#clipPath18)"><g
           id="g20"
           transform="translate(54.7432,28.4624)"><path
             d="M 0,0 C 0.007,14.58 -11.778,26.372 -26.384,26.402 -40.945,26.431 -52.744,14.649 -52.797,0.028 -52.85,-14.528 -40.974,-26.412 -26.391,-26.395 -11.795,-26.379 -0.006,-14.588 0,0 m 1.65,-0.014 c -0.026,-15.524 -12.591,-28.069 -28.076,-28.031 -15.528,0.037 -28.068,12.606 -28.021,28.087 0.047,15.531 12.627,28.072 28.097,28.01 15.527,-0.063 28.027,-12.592 28,-28.066"
             style="fill:#b6d6e0;fill-opacity:1;fill-rule:nonzero;stroke:none"
             id="path22" /></g><g
           id="g24"
           transform="translate(31.6006,39.395)"><path
             d="M 0,0 C 0.915,0.087 1.753,0.154 2.588,0.251 3.229,0.327 3.575,0.741 3.525,1.318 3.474,1.91 3.043,2.243 2.371,2.205 0.844,2.121 -0.684,1.958 -2.21,1.967 -4.677,1.983 -7.145,2.099 -9.611,2.2 c -0.841,0.035 -1.331,-0.304 -1.32,-1.02 0.008,-0.499 0.302,-0.853 0.806,-0.915 0.738,-0.089 1.479,-0.163 2.219,-0.221 0.232,-0.018 0.341,-0.103 0.419,-0.318 1.135,-3.136 2.282,-6.268 3.415,-9.404 0.056,-0.157 0.062,-0.366 0.01,-0.525 -1.627,-4.906 -3.264,-9.809 -4.9,-14.713 -0.021,-0.062 -0.049,-0.124 -0.12,-0.301 -2.844,8.467 -5.654,16.83 -8.472,25.218 0.869,0.082 1.694,0.145 2.514,0.242 0.709,0.084 1.067,0.491 1.009,1.09 C -14.09,1.941 -14.55,2.24 -15.287,2.202 -17.36,2.094 -19.435,1.999 -21.509,1.906 -21.896,1.889 -22.283,1.903 -22.724,1.903 -15.431,13.474 1.549,16.311 12.419,6.375 12.146,6.353 11.9,6.354 11.662,6.312 9.548,5.937 8.065,3.893 8.312,1.753 c 0.162,-1.409 0.823,-2.602 1.504,-3.8 0.63,-1.108 1.297,-2.203 1.817,-3.362 1.093,-2.44 1.146,-4.997 0.455,-7.538 -0.772,-2.838 -1.665,-5.641 -2.516,-8.458 C 9.217,-22.583 8.834,-23.752 8.423,-25.054 5.594,-16.638 2.805,-8.342 0,0"
             style="fill:#b6d6e0;fill-opacity:1;fill-rule:nonzero;stroke:none"
             id="path26" /></g><g
           id="g28"
           transform="translate(28.8091,26.2373)"><path
             d="m 0,0 c 2.41,-6.604 4.819,-13.207 7.242,-19.847 -4.713,-1.604 -9.458,-1.728 -14.295,-0.358 2.327,6.767 4.64,13.49 6.953,20.214 z"
             style="fill:#b6d6e0;fill-opacity:1;fill-rule:nonzero;stroke:none"
             id="path30" /></g><g
           id="g32"
           transform="translate(6.9741,37.9429)"><path
             d="m 0,0 c 3.72,-10.192 7.403,-20.281 11.089,-30.38 -1.787,0.232 -6.74,4.428 -8.939,7.6 -2.307,3.327 -3.657,7.012 -4.042,11.048 C -2.275,-7.7 -1.651,-3.832 0,0"
             style="fill:#b6d6e0;fill-opacity:1;fill-rule:nonzero;stroke:none"
             id="path34" /></g><g
           id="g36"
           transform="translate(48.9131,39.4883)"><path
             d="m 0,0 c 5.69,-10.125 2.696,-24.493 -8.725,-31.141 0.05,0.178 0.082,0.323 0.131,0.462 2.282,6.605 4.55,13.214 6.858,19.81 0.592,1.694 1.216,3.373 1.541,5.143 C 0.149,-3.844 0.251,-1.951 0,0"
             style="fill:#b6d6e0;fill-opacity:1;fill-rule:nonzero;stroke:none"
             id="path38" /></g></g></g></g></svg>
