<?xml version="1.0" encoding="UTF-8" standalone="no"?>
<svg
   xmlns:dc="http://purl.org/dc/elements/1.1/"
   xmlns:cc="http://creativecommons.org/ns#"
   xmlns:rdf="http://www.w3.org/1999/02/22-rdf-syntax-ns#"
   xmlns:svg="http://www.w3.org/2000/svg"
   xmlns="http://www.w3.org/2000/svg"
   viewBox="0 0 75.58667 75.58667"
   height="75.58667"
   width="75.58667"
   xml:space="preserve"
   id="svg2"
   version="1.1"><metadata
     id="metadata8"><rdf:RDF><cc:Work
         rdf:about=""><dc:format>image/svg+xml</dc:format><dc:type
           rdf:resource="http://purl.org/dc/dcmitype/StillImage" /></cc:Work></rdf:RDF></metadata><defs
     id="defs6"><clipPath
       id="clipPath46"
       clipPathUnits="userSpaceOnUse"><path
         id="path44"
         d="M 0,56.69 H 56.69 V 0 H 0 Z" /></clipPath></defs><g
     transform="matrix(1.3333333,0,0,-1.3333333,0,75.586667)"
     id="g10"><g
       transform="translate(8.3448,46.1898)"
       id="g12"><path
         id="path14"
         style="fill:#ca8459;fill-opacity:1;fill-rule:nonzero;stroke:none"
         d="M 0,0 3.5,-40.917 20.001,-45.44 V 0 Z" /></g><g
       transform="translate(28.3455,46.1898)"
       id="g16"><path
         id="path18"
         style="fill:#ca8459;fill-opacity:1;fill-rule:nonzero;stroke:none"
         d="M 0,0 V -45.44 L 16.499,-40.917 19.999,0 Z" /></g><g
       transform="translate(28.3452,42.7198)"
       id="g20"><path
         id="path22"
         style="fill:#db9878;fill-opacity:1;fill-rule:nonzero;stroke:none"
         d="m 0,0 v -38.5 l 13.5,3.25 3,35.25 z" /></g><g
       transform="translate(22.5464,16.4361)"
       id="g24"><path
         id="path26"
         style="fill:#e5e6ea;fill-opacity:1;fill-rule:nonzero;stroke:none"
         d="M 0,0 -0.337,3.969 H -5.21 l 0.668,-7.784 10.353,-2.964 v 5.167 z" /></g><g
       transform="translate(21.5737,27.9044)"
       id="g28"><path
         id="path30"
         style="fill:#e5e6ea;fill-opacity:1;fill-rule:nonzero;stroke:none"
         d="m 0,0 -0.442,5.157 h 7.225 v 5.055 H -5.739 l 1.302,-15.301 h 11.22 l 0,5.089 z" /></g><g
       transform="translate(40.7822,33.0616)"
       id="g32"><path
         id="path34"
         style="fill:#ffffff;fill-opacity:1;fill-rule:nonzero;stroke:none"
         d="M 0,0 0.433,5.055 H -12.425 V 0 Z" /></g><g
       transform="translate(40.3457,27.9044)"
       id="g36"><path
         id="path38"
         style="fill:#ffffff;fill-opacity:1;fill-rule:nonzero;stroke:none"
         d="m 0,0 h -11.989 v -5.089 h 6.125 l -0.522,-6.365 -5.603,-1.627 v -5.167 l 10.688,2.967 z" /></g><g
       id="g40"><g
         clip-path="url(#clipPath46)"
         id="g42"><text
           id="text50"
           style="font-variant:normal;font-weight:bold;font-stretch:normal;font-size:12px;font-family:'Adobe Clean';-inkscape-font-specification:AdobeClean-Bold;writing-mode:lr-tb;fill:#231f20;fill-opacity:1;fill-rule:nonzero;stroke:none"
           transform="matrix(1,0,0,-1,13.8086,47.3965)"><tspan
             id="tspan48"
             y="0"
             x="0 8.0279999 14.304 24.275999">HTML</tspan></text>
</g></g></g></svg>