<?xml version="1.0" encoding="UTF-8" standalone="no"?>
<svg
   xmlns:dc="http://purl.org/dc/elements/1.1/"
   xmlns:cc="http://creativecommons.org/ns#"
   xmlns:rdf="http://www.w3.org/1999/02/22-rdf-syntax-ns#"
   xmlns:svg="http://www.w3.org/2000/svg"
   xmlns="http://www.w3.org/2000/svg"
   xmlns:sodipodi="http://sodipodi.sourceforge.net/DTD/sodipodi-0.dtd"
   xmlns:inkscape="http://www.inkscape.org/namespaces/inkscape"
   version="1.1"
   id="svg2"
   xml:space="preserve"
   width="75.58667"
   height="75.58667"
   viewBox="0 0 75.58667 75.58667"
   sodipodi:docname="icon_css.ai"><metadata
     id="metadata8"><rdf:RDF><cc:Work
         rdf:about=""><dc:format>image/svg+xml</dc:format><dc:type
           rdf:resource="http://purl.org/dc/dcmitype/StillImage" /></cc:Work></rdf:RDF></metadata><defs
     id="defs6"><clipPath
       clipPathUnits="userSpaceOnUse"
       id="clipPath30"><path
         d="M 0,56.69 H 56.69 V 0 H 0 Z"
         id="path28" /></clipPath></defs><sodipodi:namedview
     pagecolor="#ffffff"
     bordercolor="#666666"
     borderopacity="1"
     objecttolerance="10"
     gridtolerance="10"
     guidetolerance="10"
     inkscape:pageopacity="0"
     inkscape:pageshadow="2"
     inkscape:window-width="640"
     inkscape:window-height="480"
     id="namedview4" /><g
     id="g10"
     inkscape:groupmode="layer"
     inkscape:label="icon_css"
     transform="matrix(1.3333333,0,0,-1.3333333,0,75.586667)"><g
       id="g12"
       transform="translate(8.3448,46.1898)"><path
         d="M 0,0 3.5,-40.917 20.001,-45.44 V 0 Z"
         style="fill:#a6d2e7;fill-opacity:1;fill-rule:nonzero;stroke:none"
         id="path14" /></g><g
       id="g16"
       transform="translate(28.3455,46.1898)"><path
         d="M 0,0 V -45.44 L 16.499,-40.917 19.999,0 Z"
         style="fill:#a6d2e7;fill-opacity:1;fill-rule:nonzero;stroke:none"
         id="path18" /></g><g
       id="g20"
       transform="translate(28.3452,42.7198)"><path
         d="m 0,0 v -38.5 l 13.5,3.25 3,35.25 z"
         style="fill:#cce3ea;fill-opacity:1;fill-rule:nonzero;stroke:none"
         id="path22" /></g><g
       id="g24"><g
         id="g26"
         clip-path="url(#clipPath30)"><text
           transform="matrix(1,0,0,-1,17.8037,47.3965)"
           style="font-variant:normal;font-weight:bold;font-stretch:normal;font-size:12px;font-family:'Adobe Clean';-inkscape-font-specification:AdobeClean-Bold;writing-mode:lr-tb;fill:#231f20;fill-opacity:1;fill-rule:nonzero;stroke:none"
           id="text34"><tspan
             x="0 6.8759999 12.948"
             y="0"
             sodipodi:role="line"
             id="tspan32">CSS</tspan></text></g></g><g
       id="g36"
       transform="translate(15.835,38.1168)"><path
         d="M 0,0 0.43,-5.055 H 12.522 V 0 Z"
         style="fill:#e5e6ea;fill-opacity:1;fill-rule:nonzero;stroke:none"
         id="path38" /></g><g
       id="g40"
       transform="translate(16.7041,27.9044)"><path
         d="m 0,0 0.433,-5.089 h 11.22 V 0 Z"
         style="fill:#e5e6ea;fill-opacity:1;fill-rule:nonzero;stroke:none"
         id="path42" /></g><g
       id="g44"
       transform="translate(22.5464,16.4361)"><path
         d="M 0,0 -0.337,3.969 H -5.21 l 0.668,-7.784 10.353,-2.964 v 5.167 z"
         style="fill:#e5e6ea;fill-opacity:1;fill-rule:nonzero;stroke:none"
         id="path46" /></g><g
       id="g48"
       transform="translate(35.1756,27.8757)"><path
         d="M 0,0 H 0.002 L 0.005,0.028 Z"
         style="fill:#ffffff;fill-opacity:1;fill-rule:nonzero;stroke:none"
         id="path50" /></g><g
       id="g52"
       transform="translate(35.1777,27.876)"><path
         d="M 0,0 H -0.002 L 0.002,0.028 Z M 6.037,10.241 H 0.744 -6.821 V 5.186 H 0.377 L 0.002,0.028 h -6.823 v -5.089 h 4.19 1.935 0.328 l -0.459,-6.314 -5.994,-1.677 v -5.167 l 10.688,2.967 z"
         style="fill:#ffffff;fill-opacity:1;fill-rule:nonzero;stroke:none"
         id="path54" /></g></g></svg>
