<?xml version="1.0" encoding="UTF-8" standalone="no"?>
<!-- Created with Inkscape (http://www.inkscape.org/) -->

<svg
   version="1.1"
   id="svg2"
   xml:space="preserve"
   width="75.586128"
   height="75.586662"
   viewBox="0 0 75.586128 75.586662"
   sodipodi:docname="c95ecda7ae25f16e247d1c72750d6bc8.ai"
   xmlns:inkscape="http://www.inkscape.org/namespaces/inkscape"
   xmlns:sodipodi="http://sodipodi.sourceforge.net/DTD/sodipodi-0.dtd"
   xmlns="http://www.w3.org/2000/svg"
   xmlns:svg="http://www.w3.org/2000/svg"><defs
     id="defs6"><clipPath
       clipPathUnits="userSpaceOnUse"
       id="clipPath16"><path
         d="M 0,56.69 H 56.69 V 0 H 0 Z"
         id="path14" /></clipPath></defs><sodipodi:namedview
     id="namedview4"
     pagecolor="#ffffff"
     bordercolor="#666666"
     borderopacity="1.0"
     inkscape:pageshadow="2"
     inkscape:pageopacity="0.0"
     inkscape:pagecheckerboard="0" /><g
     id="g8"
     inkscape:groupmode="layer"
     inkscape:label="c95ecda7ae25f16e247d1c72750d6bc8"
     transform="matrix(1.3333333,0,0,-1.3333333,-5.3333332e-4,75.586665)"><g
       id="g10"><g
         id="g12"
         clip-path="url(#clipPath16)"><g
           id="g18"
           transform="translate(48.4814,56.69)"><path
             d="m 0,0 h -40.273 c -4.534,0 -8.208,-3.675 -8.208,-8.208 v -40.273 c 0,-4.534 3.674,-8.209 8.208,-8.209 H 0 c 4.533,0 8.209,3.675 8.209,8.209 V -8.208 C 8.209,-3.675 4.533,0 0,0"
             style="fill:#ffffff;fill-opacity:1;fill-rule:nonzero;stroke:none"
             id="path20" /></g><g
           id="g22"
           transform="translate(37.4072,28.5352)"><path
             d="m 0,0 v -13.19 c 0,-0.208 0.168,-0.376 0.376,-0.376 H 5.27 c 1.75,0 3.168,1.419 3.168,3.168 V 6.533 Z"
             style="fill:#b2c088;fill-opacity:1;fill-rule:nonzero;stroke:none"
             id="path24" /></g><g
           id="g26"
           transform="translate(14.0322,15.0328)"><path
             d="M 0,0 H 4.875 C 5.082,0 5.25,0.169 5.25,0.376 v 13.703 l -8.437,6.722 V 3.188 C -3.187,1.428 -1.76,0 0,0"
             style="fill:#a6d2e7;fill-opacity:1;fill-rule:nonzero;stroke:none"
             id="path28" /></g><g
           id="g30"
           transform="translate(28.3833,32.065)"><path
             d="M 0,0 -9.101,7.25 V -2.953 l 9.303,-7.411 0.008,0.01 8.814,6.824 V 6.562 L 0.542,-0.004 C 0.382,-0.128 0.158,-0.126 0,0"
             style="fill:#de464c;fill-opacity:1;fill-rule:nonzero;stroke:none"
             id="path32" /></g><g
           id="g34"
           transform="translate(14.8589,41.7208)"><path
             d="m 0,0 v 0 c -2.217,0 -4.014,-1.797 -4.014,-4.014 v -1.873 l 8.438,-6.722 V -2.406 L 2.501,-0.875 C 1.79,-0.309 0.909,0 0,0"
             style="fill:#c43a42;fill-opacity:1;fill-rule:nonzero;stroke:none"
             id="path36" /></g><g
           id="g38"
           transform="translate(42.4727,41.6568)"><path
             d="m 0,0 v 0 c -0.747,0 -1.474,-0.248 -2.064,-0.706 l -3.001,-2.323 v -10.093 l 8.437,6.533 v 3.217 C 3.372,-1.51 1.862,0 0,0"
             style="fill:#ca8459;fill-opacity:1;fill-rule:nonzero;stroke:none"
             id="path40" /></g></g></g></g></svg>
