<?xml version="1.0" encoding="UTF-8" standalone="no"?>
<!-- Created with Inkscape (http://www.inkscape.org/) -->

<svg
   version="1.1"
   id="svg2"
   xml:space="preserve"
   width="3492.2793"
   height="245.66666"
   viewBox="0 0 3492.2793 245.66665"
   sodipodi:docname="fef91e8e6ed774e48000c6b2bd3075c2.ai"
   xmlns:inkscape="http://www.inkscape.org/namespaces/inkscape"
   xmlns:sodipodi="http://sodipodi.sourceforge.net/DTD/sodipodi-0.dtd"
   xmlns="http://www.w3.org/2000/svg"
   xmlns:svg="http://www.w3.org/2000/svg"><defs
     id="defs6"><clipPath
       clipPathUnits="userSpaceOnUse"
       id="clipPath16"><path
         d="M 0,184.25 H 2619.21 V 0 H 0 Z"
         id="path14" /></clipPath><clipPath
       clipPathUnits="userSpaceOnUse"
       id="clipPath44"><path
         d="m 1109.41,64.9439 h 766.48 V -0.842484 h -766.48 z"
         id="path42" /></clipPath></defs><sodipodi:namedview
     id="namedview4"
     pagecolor="#ffffff"
     bordercolor="#666666"
     borderopacity="1.0"
     inkscape:pageshadow="2"
     inkscape:pageopacity="0.0"
     inkscape:pagecheckerboard="0" /><g
     id="g8"
     inkscape:groupmode="layer"
     inkscape:label="fef91e8e6ed774e48000c6b2bd3075c2"
     transform="matrix(1.3333333,0,0,-1.3333333,0,245.66666)"><g
       id="g10"><g
         id="g12"
         clip-path="url(#clipPath16)"><g
           id="g18"
           transform="translate(139.0684,184.6191)"><path
             d="m 0,0 c 0,0 -2.241,-32.039 -47.431,-32.039 -45.19,0 -63.864,-33.748 -63.864,-33.748 h 222.59 c 0,0 -18.673,33.748 -63.864,33.748 C 2.241,-32.039 0,0 0,0"
             style="fill:#e5ebe5;fill-opacity:1;fill-rule:nonzero;stroke:none"
             id="path20" /></g><g
           id="g22"
           transform="translate(1061.7031,-0.8428)"><path
             d="m 0,0 c 0,0 -2.253,32.039 -47.694,32.039 -45.441,0 -64.219,33.748 -64.219,33.748 h 223.826 c 0,0 -18.778,-33.748 -64.219,-33.748 C 2.253,32.039 0,0 0,0"
             style="fill:#e5ebe5;fill-opacity:1;fill-rule:nonzero;stroke:none"
             id="path24" /></g><g
           id="g26"
           transform="translate(1361.5537,184.6191)"><path
             d="m 0,0 c 0,0 -3.784,-32.039 -80.094,-32.039 -76.311,0 -107.844,-33.748 -107.844,-33.748 h 375.875 c 0,0 -31.533,33.748 -107.843,33.748 C 3.784,-32.039 0,0 0,0"
             style="fill:#e5ebe5;fill-opacity:1;fill-rule:nonzero;stroke:none"
             id="path28" /></g><g
           id="g30"
           transform="translate(1656.999,184.6191)"><path
             d="m 0,0 c 0,0 -1.685,-32.039 -35.65,-32.039 -33.966,0 -48.001,-33.748 -48.001,-33.748 H 83.651 c 0,0 -14.036,33.748 -48.002,33.748 C 1.684,-32.039 0,0 0,0"
             style="fill:#e5ebe5;fill-opacity:1;fill-rule:nonzero;stroke:none"
             id="path32" /></g><g
           id="g34"
           transform="translate(2144.9873,184.6191)"><path
             d="m 0,0 c 0,0 -7.716,-32.039 -163.328,-32.039 -155.611,0 -219.914,-33.748 -219.914,-33.748 h 766.484 c 0,0 -64.303,33.748 -219.914,33.748 C 7.717,-32.039 0,0 0,0"
             style="fill:#e5ebe5;fill-opacity:1;fill-rule:nonzero;stroke:none"
             id="path36" /></g><g
           id="g38"><g
             id="g40" /><g
             id="g52"><g
               clip-path="url(#clipPath44)"
               opacity="0.600006"
               id="g50"><g
                 transform="translate(1492.6494,-0.8428)"
                 id="g48"><path
                   d="m 0,0 c 0,0 7.716,32.039 163.328,32.039 155.611,0 219.914,33.748 219.914,33.748 h -766.484 c 0,0 64.303,-33.748 219.914,-33.748 C -7.716,32.039 0,0 0,0"
                   style="fill:#a7d4ec;fill-opacity:1;fill-rule:nonzero;stroke:none"
                   id="path46" /></g></g></g></g><g
           id="g54"
           transform="translate(724.3306,184.6191)"><path
             d="m 0,0 c 0,0 -4.365,-32.039 -92.39,-32.039 -88.026,0 -124.4,-33.748 -124.4,-33.748 h 433.58 c 0,0 -36.374,33.748 -124.399,33.748 C 4.365,-32.039 0,0 0,0"
             style="fill:#e5ebe5;fill-opacity:1;fill-rule:nonzero;stroke:none"
             id="path56" /></g><g
           id="g58"
           transform="translate(2594.0146,64.9443)"><path
             d="m 0,0 h -2568.82 c -13.914,0 -25.195,11.279 -25.195,25.194 v 6.116 c 0,13.915 11.281,25.195 25.195,25.195 L 0,56.505 c 13.915,0 25.195,-11.28 25.195,-25.195 V 25.194 C 25.195,11.279 13.915,0 0,0"
             style="fill:#b2c088;fill-opacity:1;fill-rule:nonzero;stroke:none"
             id="path60" /></g><g
           id="g62"
           transform="translate(90.981,42.9541)"><path
             d="m 0,0 v 0 c -6.104,0 -11.052,4.948 -11.052,11.052 v 78.381 c 0,6.104 4.948,11.052 11.052,11.052 6.104,0 11.052,-4.948 11.052,-11.052 V 11.052 C 11.052,4.948 6.104,0 0,0"
             style="fill:#ca8459;fill-opacity:1;fill-rule:nonzero;stroke:none"
             id="path64" /></g><g
           id="g66"
           transform="translate(395.6367,42.9541)"><path
             d="m 0,0 v 0 c -6.104,0 -11.052,4.948 -11.052,11.052 v 78.381 c 0,6.104 4.948,11.052 11.052,11.052 6.104,0 11.052,-4.948 11.052,-11.052 V 11.052 C 11.052,4.948 6.104,0 0,0"
             style="fill:#ca8459;fill-opacity:1;fill-rule:nonzero;stroke:none"
             id="path68" /></g><g
           id="g70"
           transform="translate(700.293,42.9541)"><path
             d="m 0,0 v 0 c -6.104,0 -11.052,4.948 -11.052,11.052 v 78.381 c 0,6.104 4.948,11.052 11.052,11.052 6.104,0 11.052,-4.948 11.052,-11.052 V 11.052 C 11.052,4.948 6.104,0 0,0"
             style="fill:#ca8459;fill-opacity:1;fill-rule:nonzero;stroke:none"
             id="path72" /></g><g
           id="g74"
           transform="translate(1004.9487,42.9541)"><path
             d="m 0,0 v 0 c -6.104,0 -11.051,4.948 -11.051,11.052 v 78.381 c 0,6.104 4.947,11.052 11.051,11.052 6.104,0 11.052,-4.948 11.052,-11.052 V 11.052 C 11.052,4.948 6.104,0 0,0"
             style="fill:#ca8459;fill-opacity:1;fill-rule:nonzero;stroke:none"
             id="path76" /></g><g
           id="g78"
           transform="translate(1320.6563,42.9541)"><path
             d="m 0,0 v 0 c -6.104,0 -11.051,4.948 -11.051,11.052 v 78.381 c 0,6.104 4.947,11.052 11.051,11.052 6.104,0 11.052,-4.948 11.052,-11.052 V 11.052 C 11.052,4.948 6.104,0 0,0"
             style="fill:#ca8459;fill-opacity:1;fill-rule:nonzero;stroke:none"
             id="path80" /></g><g
           id="g82"
           transform="translate(1614.2607,42.9541)"><path
             d="m 0,0 v 0 c -6.104,0 -11.052,4.948 -11.052,11.052 v 78.381 c 0,6.104 4.948,11.052 11.052,11.052 6.104,0 11.052,-4.948 11.052,-11.052 V 11.052 C 11.052,4.948 6.104,0 0,0"
             style="fill:#ca8459;fill-opacity:1;fill-rule:nonzero;stroke:none"
             id="path84" /></g><g
           id="g86"
           transform="translate(1918.917,42.9541)"><path
             d="m 0,0 v 0 c -6.104,0 -11.052,4.948 -11.052,11.052 v 78.381 c 0,6.104 4.948,11.052 11.052,11.052 6.104,0 11.052,-4.948 11.052,-11.052 V 11.052 C 11.052,4.948 6.104,0 0,0"
             style="fill:#ca8459;fill-opacity:1;fill-rule:nonzero;stroke:none"
             id="path88" /></g><g
           id="g90"
           transform="translate(2223.5732,42.9541)"><path
             d="m 0,0 v 0 c -6.104,0 -11.052,4.948 -11.052,11.052 v 78.381 c 0,6.104 4.948,11.052 11.052,11.052 6.104,0 11.052,-4.948 11.052,-11.052 V 11.052 C 11.052,4.948 6.104,0 0,0"
             style="fill:#ca8459;fill-opacity:1;fill-rule:nonzero;stroke:none"
             id="path92" /></g><g
           id="g94"
           transform="translate(2528.2295,42.9541)"><path
             d="m 0,0 v 0 c -6.104,0 -11.052,4.948 -11.052,11.052 v 78.381 c 0,6.104 4.948,11.052 11.052,11.052 6.104,0 11.052,-4.948 11.052,-11.052 V 11.052 C 11.052,4.948 6.104,0 0,0"
             style="fill:#ca8459;fill-opacity:1;fill-rule:nonzero;stroke:none"
             id="path96" /></g></g></g></g></svg>
