<?xml version="1.0" encoding="UTF-8" standalone="no"?>
<!-- Created with Inkscape (http://www.inkscape.org/) -->

<svg
   version="1.1"
   id="svg2"
   xml:space="preserve"
   width="75.586128"
   height="75.586662"
   viewBox="0 0 75.586128 75.586662"
   sodipodi:docname="5e42e3d7c928a1c48108ece9a8f81c4f.ai"
   xmlns:inkscape="http://www.inkscape.org/namespaces/inkscape"
   xmlns:sodipodi="http://sodipodi.sourceforge.net/DTD/sodipodi-0.dtd"
   xmlns="http://www.w3.org/2000/svg"
   xmlns:svg="http://www.w3.org/2000/svg"><defs
     id="defs6"><clipPath
       clipPathUnits="userSpaceOnUse"
       id="clipPath16"><path
         d="M 0,56.69 H 56.69 V 0 H 0 Z"
         id="path14" /></clipPath></defs><sodipodi:namedview
     id="namedview4"
     pagecolor="#ffffff"
     bordercolor="#666666"
     borderopacity="1.0"
     inkscape:pageshadow="2"
     inkscape:pageopacity="0.0"
     inkscape:pagecheckerboard="0" /><g
     id="g8"
     inkscape:groupmode="layer"
     inkscape:label="5e42e3d7c928a1c48108ece9a8f81c4f"
     transform="matrix(1.3333333,0,0,-1.3333333,-5.3333332e-4,75.586665)"><g
       id="g10"><g
         id="g12"
         clip-path="url(#clipPath16)"><g
           id="g18"
           transform="translate(48.4814,56.69)"><path
             d="m 0,0 h -40.273 c -4.534,0 -8.208,-3.675 -8.208,-8.208 v -40.273 c 0,-4.534 3.674,-8.209 8.208,-8.209 H 0 c 4.533,0 8.209,3.675 8.209,8.209 V -8.208 C 8.209,-3.675 4.533,0 0,0"
             style="fill:#b2c088;fill-opacity:1;fill-rule:nonzero;stroke:none"
             id="path20" /></g><g
           id="g22"
           transform="translate(20.4819,30.3746)"><path
             d="m 0,0 c 0,0 -1.062,2.438 0,3.313 1.062,0.874 3.25,2.499 3.313,2.937 0.062,0.437 0.062,3.25 -3.188,7 -3.25,3.75 -4.937,3.812 -6.562,3.062 -1.626,-0.749 -4.438,-2.437 -4.688,-5.687 -0.25,-3.25 3.25,-11.312 10.938,-19 7.687,-7.687 16.5,-12.375 19.312,-12.375 2.813,0 5.125,2.5 5.688,3.063 0.562,0.562 2.375,3.124 2,4.124 -0.375,1 -6.125,6.751 -9.688,6.751 -3.562,0 -3.375,-3.126 -5.562,-3.251 C 9.375,-10.188 5.375,-7.812 3.313,-5.75 1.25,-3.688 0,0 0,0"
             style="fill:#ffffff;fill-opacity:1;fill-rule:nonzero;stroke:none"
             id="path24" /></g></g></g></g></svg>
